<svg xmlns="http://www.w3.org/2000/svg" width="1920.5" height="337" viewBox="0 0 1920.5 337">
  <g id="Group_258" data-name="Group 258" transform="translate(0.5 -956)">
    <path id="Path_49" data-name="Path 49" d="M0,0H1920V336H0Z" transform="translate(0 957)" fill="#425caa"/>
    <path id="Subtraction_3" data-name="Subtraction 3" d="M-6295.071,609.443a7.2,7.2,0,0,1-2.614-.7l-.008,0a8.448,8.448,0,0,0-1.607-.539,34.685,34.685,0,0,1-8.283-2.855,27.563,27.563,0,0,1-6.489-4.509c-3.558-3.31-6.592-7.82-9.549-14.193-.528-1.084-1.079-2.23-1.521-3.15l-.175-.364-.138-.285-.016-.033,0-.008-.008-.016c-5.083-10.581-10.339-21.52-18.457-30.466a18.431,18.431,0,0,0-8.116-4.9,32.345,32.345,0,0,0-9.532-1.245c-.74,0-1.543.018-2.388.053-2.007,0-2.161,1.219-2.323,2.511l0,.013,0,.038c-.03.235-.067.527-.12.793-.769,5.386-3.508,8.6-7.327,8.6a10.86,10.86,0,0,1-6.654-2.852c-.313-.243-.625-.482-1-.767l-.015-.011a34.783,34.783,0,0,1-7.178-6.641,12.958,12.958,0,0,1-2.434-9.854c.256-1.757-.717-2.882-1.748-4.073l-.01-.01-.056-.064-.042-.051c-.2-.238-.386-.453-.565-.677-2.148-2.509-4.253-5.04-5.944-7.073l0-.007c-2.833-3.4-6.043-7.261-9.239-10.844-3.5-4.46-12.584-7.456-18.879-7.456a13.073,13.073,0,0,0-4.822.777,2.893,2.893,0,0,0-2.142,1.522,6.459,6.459,0,0,1-1.978,4.37,5.313,5.313,0,0,1-3.558,1.059,24.159,24.159,0,0,1-3.578-.373l-.036-.005-.01,0-.021,0-.135-.021-.037-.006c-.3-.046-.644-.1-.961-.143-7.394-.631-14.551-1.557-21.248-2.452-5.437-.661-9.47-2.069-13.076-4.565-10.657-6.39-21.138-12.683-32.182-19.415l0,0c-2.686-1.481-5.463-3.013-5.152-7.016a2.444,2.444,0,0,0-.439-1.938,2.446,2.446,0,0,0-1.909-.6c-.37,0-.755.029-1.095.055l-.089.007c-.418.034-.736.056-1.032.056-3.327-.153-6.75-.231-10.173-.231-.947,0-1.891.006-2.806.018V285.5h417.525a28.865,28.865,0,0,1,7.474,4.513c4.285,3.5,7.182,7.545,7.749,10.833a3.631,3.631,0,0,1-1.832,3.918,9.929,9.929,0,0,1-4.112.93,9.931,9.931,0,0,1-4.114-.93,9.687,9.687,0,0,1-3.249-2.622l-.006-.006-.163-.172-.108-.115-.032-.034c-.13-.137-.243-.255-.361-.376a33.329,33.329,0,0,1-1.029,6.722,22.472,22.472,0,0,1-2.635,6.044c-.3.3-.592.615-.592.9a16.237,16.237,0,0,1,.592,9.85,43.043,43.043,0,0,1-3.637,8.9l0,.008-.008.016-.008.015,0,.007-.033.066-.008.016-.022.044c-.36.723-.767,1.543-1.152,2.353a6.367,6.367,0,0,0-.333,3.6c.194,1.958.361,3.649-2.653,4.209a2.681,2.681,0,0,0-1.687.984.937.937,0,0,0-.2.848c0,.833.5.853,1.316.886h.007a7.591,7.591,0,0,1,1.271.128,8.96,8.96,0,0,0,1.671.194,4.522,4.522,0,0,0,3.1-1.388l.005,0,.015-.01.038-.029.008-.007c.246-.193.511-.4.8-.615a26.915,26.915,0,0,0,3.735-3.63l0,0c2.323-2.566,4.518-4.99,8.1-4.99a10.5,10.5,0,0,1,3.663.735,2.321,2.321,0,0,0,.743.125c1.192,0,2.257-.938,3.287-1.845l.008-.008.006-.006c.261-.231.54-.474.8-.689l.054-.048.015-.014c.027-.025.055-.049.082-.074l.071-.062.036-.031.073-.066.071-.065c2.29-2.065,4.451-4.014,7.546-4.014a8.294,8.294,0,0,1,1.183.09,4.273,4.273,0,0,0,.633.049c1.493,0,2.373-.9,2.692-2.753a2.594,2.594,0,0,0-.823-2.276,3.814,3.814,0,0,0-2.192-.458c-2.9-.123-4.524-.716-4.979-1.814-.619-1.489,1.146-3.667,2.529-5.175a39.708,39.708,0,0,1,7.87-6.015,19.443,19.443,0,0,1,9.53-2.514c.222,0,.47,0,.83.016.236,0,.491.012.7.021l.046,0c.227.011.49.023.738.023a2.227,2.227,0,0,0,1.712-.535,2.883,2.883,0,0,0,.443-2.243c0-.615.926-1.832,1.523-1.832,6.973-1.128,11.007-5.977,14.908-10.667l.006-.008c1.347-1.62,2.739-3.3,4.247-4.8a16.155,16.155,0,0,1,8.1-4.1h58.505a5.138,5.138,0,0,1-.828,2.009,7.937,7.937,0,0,1-4.114,2.714,7.754,7.754,0,0,0-4.795,3.36,11.776,11.776,0,0,0-1.6,5.431c-.013.335-.028.671-.042,1-.31,7.268-.6,14.132,5.51,19.653,1.437,1.3,2.087,2.726,1.832,4.009-.273,1.375-1.575,2.543-3.663,3.289-3.1.918-4.274,2.761-5.467,6.059-2.292,5.219-8.382,6.487-12.764,6.987a14.852,14.852,0,0,0-10.029,6.287,10.652,10.652,0,0,0-1.5,8.593,21.093,21.093,0,0,1,.307,9.716,32.921,32.921,0,0,1-3.347,8.826,10.9,10.9,0,0,0-.685,1.834l-.02.063-.01.033,0,.006c-.527,1.674-1.123,3.569-2.225,3.569-.916,0-2.037-1.3-3.429-3.983a2.214,2.214,0,0,0-2.033-1.148,2.791,2.791,0,0,0-1.628.528c-1.424.942-.794,1.9-.184,2.834l.005.009a7.19,7.19,0,0,1,.487.82,33.7,33.7,0,0,0,3.354,5.129,14.417,14.417,0,0,1,2.521,9.2,13.325,13.325,0,0,1-3.421,8.753l-.041.039a3.583,3.583,0,0,1-2.235,1.361,1.724,1.724,0,0,1-.769-.189,4.49,4.49,0,0,1-.93-2.452c.556-4.089-1.271-7.268-5.748-10-2.985-2.182-2.354-5.3-1.743-8.317l.013-.066.049-.244,0-.025c.056-.277.107-.542.153-.789.649-1.977.857-3.4,0-4.847a1.575,1.575,0,0,0-1.081-.412,1.639,1.639,0,0,0-1.37.723,8.439,8.439,0,0,1-1.252,1.176l-.012.01c-1.15.944-2.34,1.92-1.471,3.66a23.245,23.245,0,0,1,1.081,5.006l0,.019,0,.008v.008a22.2,22.2,0,0,0,1.084,4.987,9.061,9.061,0,0,0,3.326,4.259,9.433,9.433,0,0,1,3.042,6.991c-.6,4.711.187,7.557,6.059,9.1a4.08,4.08,0,0,1,2,2.1c1.151,2.114,1.973,5.544,1.356,7.625-.618,3.039-.928,4.565,1.523,6.087l.9.9a3.944,3.944,0,0,1,1.28,3.6,9,9,0,0,1-1.676,3.129c-1.175,1.652-2.39,3.359-1.437,5.418.912,2.333,1.005,4.055.287,5.264-1.1,1.848-3.933,2.2-6.671,2.548h-.008c-.095.013-.19.025-.285.036l-.061.008-.11.014-.014,0-.128.017-.017,0c-2.6.3-5.29.6-7.24,1.823-2.169,1.357-3.239,3.67-3.367,7.278a9.37,9.37,0,0,1-2.321,5.526,9.6,9.6,0,0,1-6.191,3.012c-4.514.81-5.908,5.121-7.028,8.586v.005l-.071.221-.051.158c-.048.147-.1.3-.143.443a20.383,20.383,0,0,1-4.6,8.061A54.477,54.477,0,0,1-6074.57,489l-.008.006-.007,0-.138.108-.436.338c-.462.4-.942.8-1.351,1.138l-.058.048-.005,0c-4.068,3.394-8.679,7.242-9.208,14.28-.363,13.072,1.912,22.342,7.607,31,.414.7.823,1.408,1.2,2.074l.033.054c2.2,3.832,4.276,7.45,7.868,10.018a5.985,5.985,0,0,1,1.521,3.043c.279,7.359,3.979,13.525,7.557,19.488l.071.121q.1.161.194.324l.132.222.1.162.066.11.023.039c.214.359.437.73.649,1.092a19.613,19.613,0,0,1,2.535,8.01,53.363,53.363,0,0,1,.033,8.116v.074c-.093,1.937-.2,4.133-.113,6.259a1.9,1.9,0,0,1-.312,1.466c-.521.646-1.586.753-2.616.856l-.042.005c-.329.032-.677.069-1,.125a11.044,11.044,0,0,1-3.534.585c-3.28,0-6.207-1.5-9.036-2.946l-.007,0-.008,0-.009,0a28.863,28.863,0,0,0-5.919-2.5c-1.293-.331-1.644-1.528-2.048-2.913a8.283,8.283,0,0,0-1.895-3.767c-6.989-6.611-12.161-12.87-15.811-19.133a3.219,3.219,0,0,1,.021-3.07l0-.006v0l0-.014,0-.007a8.739,8.739,0,0,0,.278-.842c.021-.244.045-.491.068-.734l.021-.217.008-.1.02-.2.015-.162c.6-6.288,1.164-12.227-5.908-15.895a10.855,10.855,0,0,1-2.756-3.183l0-.007-.02-.031c-.358-.53-.764-1.131-1.163-1.625-3.246-3.281-6.057-4.744-9.114-4.744a16.72,16.72,0,0,0-7.6,2.292,35.964,35.964,0,0,1-6.058,3.326,5.54,5.54,0,0,1-2.686.9c-1.164,0-2.146-.661-3.092-2.079-.222-.4-.432-.809-.654-1.24l-.04-.078h0v0l-.008-.015-.008-.018c-1.277-2.5-2.6-5.09-5.656-5.352-1.331-.066-2.689-.166-4-.262h-.009l-.007,0c-2.286-.169-4.647-.343-6.966-.343a29.264,29.264,0,0,0-6.346.607l-.031.007-.039.008a135.792,135.792,0,0,1-19.064,2.749,15.275,15.275,0,0,1-1.575-.123l-.063-.007-.013,0-.044,0a17.712,17.712,0,0,0-1.894-.143,2.429,2.429,0,0,0-1.876.556,1.531,1.531,0,0,0-.312,1.245c.231,1.447-.508,2.883-1.222,4.271l0,.007c-1.23,2.4-2.5,4.873.943,7.556.212.156.5.324.774.486l.01.006.01,0c.983.578,2.206,1.3,2.416,2.425a2.839,2.839,0,0,1-.786,2.235,2.9,2.9,0,0,1-2.4,1.307,7.518,7.518,0,0,1-3.229-1.09l-.429-.217a10.54,10.54,0,0,0-5.046-1.9c-1.745,0-3.338.99-5.014,3.116a6.319,6.319,0,0,1-4.966,2.586c-2.909,0-5.6-2.088-6.869-5.32-1.363-3.578-3.934-5.715-6.877-5.715a7.305,7.305,0,0,0-5.579,2.981,2.95,2.95,0,0,1-2.456,1.492,7.138,7.138,0,0,1-2.161-.486l-.23-.076a27.469,27.469,0,0,0-11.744-2.66c-6.1,0-12.4,1.992-19.844,6.267l-.061.031c-2.424,1.238-4.176,2.132-5.408,5.154a10.875,10.875,0,0,1-5.047,5.008,25.21,25.21,0,0,1-7.1,2.263c-5.151,1.14-8.688,4.721-12.108,8.184l0,.005-.623.63a15.633,15.633,0,0,0-3.142,4.623,16.013,16.013,0,0,0-1.251,4.883,42.392,42.392,0,0,0,.655,10.236l0,.022,0,.021.014.094c.267,1.854.544,3.77.675,5.652a6.122,6.122,0,0,0,.577,2.183l.006.015c.541,1.362,1.1,2.769-.3,4.17A2.913,2.913,0,0,1-6295.071,609.443Z" transform="translate(6534 671)" fill="#fff" stroke="rgba(0,0,0,0)" stroke-width="1" opacity="0.2"/>
  </g>
</svg>
