<svg xmlns="http://www.w3.org/2000/svg" xmlns:xlink="http://www.w3.org/1999/xlink" width="89" height="89" viewBox="0 0 89 89">
  <defs>
    <clipPath id="clip-path">
      <rect id="Rectangle_102" data-name="Rectangle 102" width="89" height="89" transform="translate(0 0)" fill="#ee8b3f"/>
    </clipPath>
  </defs>
  <g id="Group_44" data-name="Group 44" transform="translate(0 0)">
    <g id="Group_43" data-name="Group 43" clip-path="url(#clip-path)">
      <path id="Path_40" data-name="Path 40" d="M20.333,16.421a1.3,1.3,0,1,0-1.3-1.3,1.3,1.3,0,0,0,1.3,1.3m-10.43,0a1.3,1.3,0,1,0-1.3-1.3,1.3,1.3,0,0,0,1.3,1.3m5.215,0a1.3,1.3,0,1,0-1.3-1.3,1.3,1.3,0,0,0,1.3,1.3m-.286,13.811h.024l11.788,0h0a1.784,1.784,0,0,0,.908-3.32l-1.793-1.06A15.118,15.118,0,1,0,0,15.118,15.279,15.279,0,0,0,14.832,30.233M6.336,6.208a12.424,12.424,0,0,1,8.967-3.6A12.51,12.51,0,0,1,23.34,24.547a1.9,1.9,0,0,0,.282,3.073l.013.008-8.765,0A12.51,12.51,0,0,1,6.336,6.208M87.7,86.393h-1.3V66.978A12.886,12.886,0,0,0,78.721,55.2L71.85,52.259a10.293,10.293,0,0,0,4.411-2.773,10.8,10.8,0,0,0,2.918-7.329,10.37,10.37,0,0,0-2.5-6.745,13.5,13.5,0,0,1-3.168-8.682V20.483a20.483,20.483,0,0,0-40.967,0v6.044a14.09,14.09,0,0,1-3.386,8.944A10.559,10.559,0,0,0,34.2,52.3L27.378,55.27A12.845,12.845,0,0,0,19.5,67.135V82.482a1.3,1.3,0,1,0,2.607,0V67.135a10.249,10.249,0,0,1,6.3-9.467l8.552-3.719V61.8H33.027a3.911,3.911,0,0,0-3.888,4.323l2.148,20.274H1.3A1.3,1.3,0,0,0,1.3,89H87.7a1.3,1.3,0,1,0,0-2.607m-13.009-49.3a7.8,7.8,0,0,1,1.884,5.066A8.168,8.168,0,0,1,74.363,47.7a7.8,7.8,0,0,1-5.748,2.446h-1.7l-2.232-.956A5.951,5.951,0,0,1,61.129,44.5a12.834,12.834,0,0,0,6.764-11.3V23.4c.381.025.762.04,1.142.04a16.732,16.732,0,0,0,1.872-.106v3.4a16.11,16.11,0,0,0,3.781,10.362M53.346,57.673a48.3,48.3,0,0,1-13.783-1.755v-3.1l.378-.164.009,0,2.326-1.011a8.562,8.562,0,0,0,4.973-6.125,12.762,12.762,0,0,0,3.573.511h4.249a12.788,12.788,0,0,0,3.586-.514,8.558,8.558,0,0,0,5,6.078l2.483,1.064,0,0,.184.079v2.933a48.391,48.391,0,0,1-12.982,2.011m12.981.7V61.8H39.563V58.618A50.962,50.962,0,0,0,52.5,60.288q.447,0,.894-.008a50.986,50.986,0,0,0,12.935-1.9M70.907,20.7a14.481,14.481,0,0,1-10.428-2.637,1.3,1.3,0,1,0-1.6,2.061,15.751,15.751,0,0,0,6.4,2.909v7.1a9.539,9.539,0,0,1-2.9,3.912,9.971,9.971,0,0,1-2.163,1.36,3.824,3.824,0,0,0-3.4-2.085H53.768a3.821,3.821,0,1,0,0,7.643h3.056a3.828,3.828,0,0,0,3.7-2.854,23.275,23.275,0,0,0,4.588-3.037,10.229,10.229,0,0,1-10.039,8.34H50.822A10.226,10.226,0,0,1,40.608,33.2V23.121a34.941,34.941,0,0,0,12.448-4.462A35.414,35.414,0,0,0,64.905,7.122a17.868,17.868,0,0,1,6,13.581M58.038,37.146a1.216,1.216,0,0,1-1.214,1.211H53.768a1.214,1.214,0,0,1,0-2.429h3.056a1.216,1.216,0,0,1,1.214,1.21ZM35.155,20.482A17.881,17.881,0,0,1,62.829,5.527a32.827,32.827,0,0,1-11.1,10.889,32.424,32.424,0,0,1-12.341,4.249H35.155Zm-5.065,25.1a7.868,7.868,0,0,1,1.076-8.443,16.652,16.652,0,0,0,3.989-10.611V23.272H38V33.2a12.833,12.833,0,0,0,6.77,11.3,5.949,5.949,0,0,1-3.535,4.744l-2.07.9h-1.89a7.869,7.869,0,0,1-7.185-4.565M75.475,65.845,73.3,86.393H33.908L31.73,65.845a1.3,1.3,0,0,1,1.3-1.441H74.179a1.3,1.3,0,0,1,1.3,1.441m8.31,20.548H75.919L78.068,66.12A3.911,3.911,0,0,0,74.179,61.8H68.935v-7.95l8.744,3.748a10.271,10.271,0,0,1,6.107,9.384ZM53.6,70.444A4.954,4.954,0,1,0,58.557,75.4,4.96,4.96,0,0,0,53.6,70.444m0,7.3A2.347,2.347,0,1,1,55.949,75.4,2.35,2.35,0,0,1,53.6,77.745" transform="translate(0 0)" fill="#ee8b3f"/>
    </g>
  </g>
</svg>
