<svg xmlns="http://www.w3.org/2000/svg" xmlns:xlink="http://www.w3.org/1999/xlink" width="366.916" height="5.333" viewBox="0 0 366.916 5.333">
  <defs>
    <clipPath id="clip-path">
      <rect id="Rectangle_58" data-name="Rectangle 58" width="366.916" height="5.333" fill="#ee8b3f"/>
    </clipPath>
  </defs>
  <g id="Group_29" data-name="Group 29" transform="translate(0 0)">
    <g id="Group_28" data-name="Group 28" transform="translate(0 0)" clip-path="url(#clip-path)">
      <path id="Path_32" data-name="Path 32" d="M270.407.215a1.071,1.071,0,0,0,.676-.091l.024.011c.252.119.463-.05.557-.02a1.474,1.474,0,0,0,.932.005c.1-.024.546.113.862.135l.234.016a6.415,6.415,0,0,1,.973-.043c.238.014,1.213.082,1.643.116l.337-.107a.745.745,0,0,1,.22-.007,10.432,10.432,0,0,0,1.21.144h.325c.311-.083.531-.021.487.137l.625-.184.521-.153a7.459,7.459,0,0,0,1.554.054c.343-.042,93.646.157,94.013.147s1.6.133,1.97.161l-.025-.17a.982.982,0,0,1,.268-.031l.476.117A6.013,6.013,0,0,1,379.729.5c.212.063.96-.071,1.149-.039A5.5,5.5,0,0,0,382.023.5c.245-.046,1.615-.031,2.39-.022l.67.106A8.8,8.8,0,0,0,386.057.5L386.3.49a3.262,3.262,0,0,0,.746,0l.014,0,.616.186a3,3,0,0,1,1.529.045,2.167,2.167,0,0,0,.841.409,2.189,2.189,0,0,1,.574.031c.026.034-.152.163-.392.212s-.267.441-.653.646l.13.254.03.059a.155.155,0,0,1-.206.116.788.788,0,0,0-.458.034h.006c.67.1-.123.274.2.392a.034.034,0,0,1,0,.067l-.508.171c-.022.13-.571.272-1.219.317l-.576-.166-.095-.027a11.361,11.361,0,0,1-1.347.114c-.365,0-1.594-.032-1.934,0l-.314,0-.309,0c-.329-.022-.718-.042-.862-.044s-.685-.013-.86.005-1.341.035-2.192.034-95.772-.008-96.262-.03-1.8.133-1.914.133l-.107,0-.644.018a15.455,15.455,0,0,0-1.843-.023c-.321.032-1.363-.066-1.631-.052s-1.215.041-1.534.014-1.877.034-2.632.042h-2.777a7.679,7.679,0,0,1-1.233-.011c-.315-.143-.735.058-.971-.069a1.758,1.758,0,0,0-.442-.017,6.735,6.735,0,0,1-.929.063l-.463-.13a3.2,3.2,0,0,1-1.048.1c-.234-.035-.747-.055-1.024-.086s-1.125.091-1.364.041a9.431,9.431,0,0,0-1.347.135c-.265.019-1.265-.137-1.761-.171l-.529.122-.377.087c-.739-.041-1.47-.1-1.625-.121s-.857-.061-1.235-.084a24.762,24.762,0,0,0-2.5.287l-.468-.246a1.476,1.476,0,0,0-.452,0c-.51.153-1.1-.1-1.619.037a2.925,2.925,0,0,1-.715.053c-.443-.017-.874-.085-1.312-.087h-.381a10.107,10.107,0,0,1-1.188.061c-.238-.011-1.094-.017-1.3-.053a7.891,7.891,0,0,0-1.248.136c-.262.037-.958-.118-1.21-.08a17.7,17.7,0,0,1-1.842-.018h-.416c-.4,0-.809.047-1.212.044l-.75,0c-.82-.036-2.146-.061-2.95-.055l-.674.071-.591.062c-.6-.047-1.663-.078-2.356-.07h-6.41c-.642,0-1.284-.007-1.923,0l-.4.006c-.436.035-.856.07-.934.074s-.675-.024-1.161-.054-3.2.045-3.4.021-.734-.017-.934-.027-1.189.068-1.7.076H207c-.527,0-2.093.018-3.48.034s-5.47.126-6,.195l-.156-.044-.4-.111a3.409,3.409,0,0,1-1.208-.006l-.493.118a7.912,7.912,0,0,1-1.253.012h-.694c-.763,0-1.651.017-1.975.045a10.912,10.912,0,0,1-1.823-.157l-.245.118-.355.171a3.921,3.921,0,0,0-1.217-.137c-.388.02-1.662.05-1.964.043s-1.495.063-2.046.033l-.5-.014-.531-.015c-.589.008-1.324.038-1.633.067s-1.215.049-1.7.122l-.561-.067a15.1,15.1,0,0,0-1.588-.011h-.534a14.036,14.036,0,0,0-1.621.092h-.552c-.3-.047-1.586-.074-2.857-.061s-4.786.144-4.994.245l-.381-.144c-.088-.033-.6.051-.924.064L165,4.157a6.436,6.436,0,0,1-1.191-.134,14.906,14.906,0,0,0-1.758.12c-.351,0-1.566,0-1.919,0s-1.611.031-2.016.062h-.367c-.345,0-.7-.061-1.035-.054l-.662.012c-.725-.009-1.833-.013-2.466-.008s-2.511.106-2.9.077l-.354-.006-.514-.01c-.56.024-1.253.024-1.537,0s-1.254.124-1.636.14-1.787,0-2.228,0-2.346,0-3.26.027-4.1.059-5.042.063-3.575.017-3.77.054a12.406,12.406,0,0,1-1.316-.069c-.253-.013-1.183.118-1.63.128s-2.253,0-2.988,0-3.243,0-3.951.026-3.741.053-5.151.053h-2.617c-1.469,0-2.989,0-3.378,0l-.289.092c-.274.087-.514-.191-.894-.017l-.077.035a6.907,6.907,0,0,0-1.1.026c-.263.035-1.264-.095-1.862-.045h-.547l-4.166.007c-4.583,0-8.809-.035-9.393-.079l-.446.151-.069.023-.953-.051a12.216,12.216,0,0,0-1.427.022c-.117.034-.63-.044-.771-.023s-.811.037-1.144.026l-.3-.013-1.453.032-.317,0a2.685,2.685,0,0,1-.762-.072,10.151,10.151,0,0,0-1.03.046L84.023,4.8c-.14-.006-.32-.065-.394-.052l-1.093.186c-1.27-.052-3.366-.094-4.658-.092H73.766c-.757.008-1.672,0-2.035-.026s-1.662.181-2.225.25l-.377-.2a1.359,1.359,0,0,0-.433-.016l-.535.116a21.22,21.22,0,0,0-2.205-.041l-.557.016c-.636.018-1.281,0-1.922,0H55.519c-.645,0-1.573-.018-2.06-.045s-1.874.115-2.049.092-1.265-.052-2.02-.066-2.947.1-3.213.1-1.1-.009-1.291-.052a11.249,11.249,0,0,0-1.323.081c-.252.013-1.082-.084-1.407-.054s-1.447.052-1.753.067-1.309-.083-1.536-.065-1.331.037-1.919.036-2.981-.022-4.012-.059l-.882.16L31.9,5.16c-.252-.017-.881-.026-1.4-.02l-.329-.062-.541-.1a6.286,6.286,0,0,1-1.351.106l-.4.043-.426.047c-.552-.021-1.195-.026-1.431-.01S24.068,5.034,22.6,5l-1.221.22-.437.079c-.487-.037-1.149-.066-1.471-.064s-1.432,0-1.748.013-1.062-.047-1.194-.03-.868.021-1.279.018-1.772-.012-2.11-.024-1.349.019-1.636-.011-.943.108-1.026.082A1.717,1.717,0,0,0,9.9,5.227a7.457,7.457,0,0,1-1.118.105h-.32c-.589,0-1.176,0-1.763,0H6.379a1.213,1.213,0,0,0-.373-.144c-.059,0-.229.034-.248.078a7.864,7.864,0,0,1-1.407.014h-.9a4.058,4.058,0,0,1-.688-.025c.086-.009.257-.088.124-.148s-.213-.281-.153-.353.107-.289-.084-.289a2.157,2.157,0,0,0-.581.052c.038.028.054.106-.041.116a2.248,2.248,0,0,1-.563-.095C1.29,4.485.45,4.377.285,4.319s-.467-.3-.139-.325.7.285.923.346h.271a.608.608,0,0,0,.274-.086l.032-.02a.483.483,0,0,0-.263-.046c-.083.011-.351.009-.351-.036a.961.961,0,0,1,.6-.222,6.29,6.29,0,0,0,1.274-.224c0-.06.116-.246.258-.18a1.9,1.9,0,0,0,.933.094l.077-.076c.1-.1.168-.078.384-.031l.15.033c.237,0,.872.009,1.409.011a10.254,10.254,0,0,0,1.709-.179c-.118-.017.285-.131,1.158-.212l.942.131a5.574,5.574,0,0,0,.561.057l.137.005c.234-.025.311-.093.172-.153s-.371-.231-.206-.248l.137.007c.161.008.37.071.454.056l.535-.1a4.391,4.391,0,0,0,.833.22c.129.006.655,0,.529-.048s0-.146.265-.222a8.64,8.64,0,0,1,1.425-.084c.181.007.92-.009,1.188,0s1.065-.01,1.435.028a10.476,10.476,0,0,0,1.316-.207,2.448,2.448,0,0,1,.613.171.415.415,0,0,0,.245.008V2.767l.009-.27c.618.041,1.451.127,1.85.192l.5-.091.452-.083c.623-.025,1.343-.077,1.6-.115a8.872,8.872,0,0,1,.995.108l.038-.025.069-.045a5.6,5.6,0,0,1,.836.028h.3l.433,0c.457-.037.985-.078,1.172-.091s1.015-.028,1.371-.043,1.607-.042,1.984-.022,1.6-.122,1.974-.135,1.447.056,1.619.014.856.042,1.024,0,.747.04.852.009a1.813,1.813,0,0,1,.611-.054,3.381,3.381,0,0,0,.823.085c.216-.022,1.056-.042,1.392-.031s1.343-.029,1.593-.021,1.045-.028,1.228-.054.938-.061,1.284-.086a12.982,12.982,0,0,1,1.588.177c.219.026.48-.184.6-.2l.064.011.5.083c.508-.061.968-.12,1.023-.131l.036,0a5.02,5.02,0,0,0,.82.087l.271-.024a2.93,2.93,0,0,0,.687-.025,6.254,6.254,0,0,1,1.122.037l.287.02.194.013c.226-.015.664-.035.976-.044a13.045,13.045,0,0,1,1.825.078l.475-.132a11.341,11.341,0,0,0,1.183-.073c.033-.011.288.047.45.061l.709.062a15.867,15.867,0,0,0,1.75-.143c.178-.045.823.035.966-.017a3.134,3.134,0,0,1,.8.092c.094.012.519.022.837.046s1.508-.083,2.077-.1l.417.132.062.019a1.7,1.7,0,0,0,.583-.073,3.82,3.82,0,0,1,.771-.108c.242-.013,1.412.021,2.042.065l.5-.162c.128-.041.552.02.772-.012l.5-.07c.426.075.919.143,1.094.151s.827-.043,1.064-.013l.214.037c.276.048.406-.188.759-.034.033.015.4-.06.606-.061h.3c.323.028.681.061.8.074s.82-.02,1.246-.009,1.542-.145,1.657-.126.688.12.989.2l.3-.152.451-.231c.661.1,1.506.2,1.878.228a16.482,16.482,0,0,0,1.913-.126c.289-.04,1.081-.043,1.367-.068l.186.042.207.047a1.3,1.3,0,0,0,.743,0l.193-.057.033-.01a1.512,1.512,0,0,1,.46.039,2.814,2.814,0,0,0,.8.063,13.456,13.456,0,0,1,1.6-.016c.239.022.8.009,1.036.029s.753-.028.947-.023a9.224,9.224,0,0,0,1.137-.073c.245-.045,1.293.092,1.786.118l.319-.144a1.526,1.526,0,0,1,.31,0l.651.032a11.685,11.685,0,0,0,1.9-.051c.333-.059,1.573.1,1.994.1l.339-.029.315-.026c.349,0,.92-.031,1.267-.058a10.186,10.186,0,0,1,1.386.14l.081-.011.939-.131c1.087.018,2.2.032,2.47.029A11.464,11.464,0,0,1,105.9,1.7l.369-.2.163-.09a6.12,6.12,0,0,1,1.061.172,5.659,5.659,0,0,0,1-.1c.186-.015.775.089.955.1l.084-.023.444-.124c.436.073,1.043.147,1.35.164a10.876,10.876,0,0,0,1.392-.1c.213-.036.949.039,1.061.027a5.1,5.1,0,0,0,.637-.122c.123-.042.6.025.713-.024l.36.056.4.061c.593-.036,1.388-.089,1.766-.119s1.379.05,1.548.037a11.553,11.553,0,0,1,1.172.051l.293.009.105,0c.165-.061.33-.062.37,0a.8.8,0,0,0,.584.157c.233-.046.97-.175,1.161-.205s1.529-.035,1.763-.019,1-.105,1.294-.115,1.293.006,1.549.038,1.543-.013,2.206-.017l.411-.081.368-.072c.232.059.515.133.628.165a13.522,13.522,0,0,0,1.625-.079c.51-.051,2.087-.038,2.3-.013a12.637,12.637,0,0,0,1.306.008c.3-.019,1.343-.047,1.652-.038a12.565,12.565,0,0,0,1.309-.1,3.622,3.622,0,0,1,.7.08l.041,0c.278-.031.547-.084.831-.092.25-.007.532.061.771.048l.365-.02c.411-.012.962-.038,1.226-.059s.875.082.933.039l.083-.031.062-.023a9.063,9.063,0,0,1,.938.028c.4.028,2.2-.049,2.51-.024l.245.038.308.048a3.631,3.631,0,0,1,.979-.035l.206-.023.364-.04a3.889,3.889,0,0,1,1.032-.1,9.355,9.355,0,0,0,1.253-.013c.261-.03.791-.022,1.009-.035a9.848,9.848,0,0,1,1.013.044c.191.02.745-.022.82.009a3.044,3.044,0,0,0,.873.052c.329-.034,2.268-.017,2.936-.026s1.914-.134,2.17-.157l.333.028.64.054c.762-.006,1.619-.011,1.9-.01l.287-.04L164.5.8c.488,0,1.085.011,1.326.032S166.9.807,167.11.82l.194.014.181.013c.193.011.853,0,1.469-.026L169.5.791l.467-.026c.52-.023.983-.043,1.028-.044s.365.026.649.044,1.2.038,1.439.063A4.739,4.739,0,0,0,174,.9a2.685,2.685,0,0,1,.664-.1c.172,0,.8-.109,1.163-.115s1.786-.016,2.352-.025,2.283.044,2.542.061S181.732.622,181.9.641s.5.017.612.029.939-.04,1.618-.1l.629.023.461.017a5.9,5.9,0,0,1,1.344-.036l.336.009.341.009a3.979,3.979,0,0,1,1.135.035,18.666,18.666,0,0,0,1.9-.194l.477.114a.846.846,0,0,0,.271-.034l.084-.034a1.047,1.047,0,0,1,.437-.126,9.85,9.85,0,0,1,1.1.1c.248.024,1.174.011,1.414.034a9.032,9.032,0,0,0,.943-.022c.182-.009,1.005.027,1.343.048s1.522-.071,1.906-.044l.15-.042c.482-.135.648.1.947.059l.311-.039a6.55,6.55,0,0,1,1.019-.176c.265-.018,1.252.022,1.51.04s1.171.01,1.418-.02a9.8,9.8,0,0,1,1.37.062,13.991,13.991,0,0,0,1.624-.035l.5.065a2.235,2.235,0,0,0,1.119-.1l1.02-.057a16.007,16.007,0,0,0,3.207.018c.4-.033.772.18,1.174-.023A6.21,6.21,0,0,1,214.833.2l.233.005a3.049,3.049,0,0,0,.661.044c.114-.016.418-.062.654-.113a9.661,9.661,0,0,1,1.1.118c.221-.01.762-.092.868-.1a5.782,5.782,0,0,1,.831.132h.221c.223,0,.438-.065.673-.088l.386-.037c.4.048.829.1.946.108a2.835,2.835,0,0,0,.558-.055c.142-.028.647.038.773.028l.095-.021a1.806,1.806,0,0,1,.341-.1c.274.009.542.072.8.066.336-.007.655-.074.992-.088l.3-.012a6.011,6.011,0,0,0,1.056-.027l.261.069.171.045c.288.007.86.024,1.271.038s1.659-.078,1.929-.035,1.775-.019,2.732.051L233.586.1a3.821,3.821,0,0,1,.942,0l.436.069c.413-.043.953-.118,1.2-.168h.221a3.889,3.889,0,0,1,.658.1l.123.022c.116.03.844.072,1.621.094s2.736-.2,2.786-.192.146.048.211.066.669,0,1.024-.024,1.554-.054,1.877-.042,1.39.134,1.659.176S247.471.145,247.679.2a9.388,9.388,0,0,0,1.6-.2l.488.145.211.063c.64-.059,1.645-.112,2.232-.117l.533.01.553.01A7.5,7.5,0,0,0,255.079.04l.512.135c.4.105.857-.195,1.39-.049A2.059,2.059,0,0,0,258.2.1a.558.558,0,0,1,.155,0l.364.049c.4.017.856.044,1.013.06S260.6.131,260.947.1l.295,0,.611.009c.67,0,1.791-.015,2.491-.024l.641.007.4,0c.436.038.974.08,1.194.092a8.527,8.527,0,0,0,.938-.065c.173-.019.728.069.88.077L268.42.2l.328-.186c.38.1,1.485.153,1.659.2" transform="translate(0 0)" fill="#ee8b3f"/>
    </g>
  </g>
</svg>
