<svg xmlns="http://www.w3.org/2000/svg" xmlns:xlink="http://www.w3.org/1999/xlink" width="52" height="52" viewBox="0 0 52 52">
  <defs>
    <clipPath id="clip-path">
      <rect id="Rectangle_95" data-name="Rectangle 95" width="52" height="52" fill="#fff"/>
    </clipPath>
  </defs>
  <g id="Group_42" data-name="Group 42" clip-path="url(#clip-path)">
    <path id="Path_39" data-name="Path 39" d="M52.066,41.365a6.463,6.463,0,0,1-.292,1.926l-2.485,7.991a1.083,1.083,0,1,1-2.069-.641L49.7,42.648a4.311,4.311,0,0,0-3.347-5.525l-8.716-1.582a1.084,1.084,0,0,1-.891-1.066V21.839a1.831,1.831,0,0,0-3.66,0V44.182a1.083,1.083,0,0,1-1.848.767L27.2,40.908a1.969,1.969,0,1,0-2.784,2.784l6.5,6.5a1.084,1.084,0,1,1-1.532,1.534l-6.5-6.5a4.137,4.137,0,0,1,5.85-5.85l2.188,2.188V21.848a4,4,0,0,1,7.993,0V33.58L46.747,35a6.478,6.478,0,0,1,5.319,6.366m-21.909-27a1.084,1.084,0,0,0-1.532,0L18.394,24.6l-4.767-4.767A1.083,1.083,0,1,0,12.1,21.36L17.638,26.9a1.082,1.082,0,0,0,1.531,0l11-11a1.084,1.084,0,0,0-.011-1.543m-14.116,24.1A18.417,18.417,0,1,1,38.2,15.023a1.084,1.084,0,1,0,2.065-.661A20.583,20.583,0,1,0,15.5,40.561a1.061,1.061,0,0,0,.271.035,1.083,1.083,0,0,0,.271-2.134" transform="translate(-0.066 -0.044)" fill="#fff"/>
  </g>
</svg>
