<svg xmlns="http://www.w3.org/2000/svg" xmlns:xlink="http://www.w3.org/1999/xlink" width="47" height="56" viewBox="0 0 47 56">
  <defs>
    <clipPath id="clip-path">
      <rect id="Rectangle_239" data-name="Rectangle 239" width="47" height="56" transform="translate(0 0)" fill="#fff"/>
    </clipPath>
  </defs>
  <g id="Group_199" data-name="Group 199" transform="translate(0 0.126)">
    <g id="Group_196" data-name="Group 196" transform="translate(0 -0.126)">
      <g id="Group_195" data-name="Group 195" clip-path="url(#clip-path)">
        <path id="Path_181" data-name="Path 181" d="M24,56.376A1.946,1.946,0,0,1,22.6,55.8L7.459,40.652a23.4,23.4,0,1,1,33.078,0L25.392,55.8A1.946,1.946,0,0,1,24,56.376M24,4.656A19.457,19.457,0,0,0,10.247,37.865L24,51.617,37.75,37.865A19.457,19.457,0,0,0,24,4.656" transform="translate(-0.498 -0.455)" fill="#fff"/>
      </g>
    </g>
    <g id="Group_198" data-name="Group 198" transform="translate(0 -0.126)">
      <g id="Group_197" data-name="Group 197" clip-path="url(#clip-path)">
        <path id="Path_182" data-name="Path 182" d="M92.859,95.719a9.86,9.86,0,1,1,9.86-9.86,9.86,9.86,0,0,1-9.86,9.86m0-15.776a5.916,5.916,0,1,0,5.916,5.916,5.915,5.915,0,0,0-5.916-5.916" transform="translate(-69.359 -63.383)" fill="#fff"/>
      </g>
    </g>
  </g>
</svg>
