<svg xmlns="http://www.w3.org/2000/svg" xmlns:xlink="http://www.w3.org/1999/xlink" width="310.791" height="5.333" viewBox="0 0 310.791 5.333">
  <defs>
    <clipPath id="clip-path">
      <rect id="Rectangle_58" data-name="Rectangle 58" width="310.791" height="5.333" fill="#ee8b3f"/>
    </clipPath>
  </defs>
  <g id="Group_252" data-name="Group 252" transform="translate(0 0)">
    <g id="Group_28" data-name="Group 28" transform="translate(0 0)" clip-path="url(#clip-path)">
      <path id="Path_32" data-name="Path 32" d="M229.045.215a.783.783,0,0,0,.573-.091l.02.011c.214.119.392-.05.471-.02a1.068,1.068,0,0,0,.79.005c.082-.024.462.113.73.135l.2.016a4.61,4.61,0,0,1,.825-.043c.2.014,1.027.082,1.391.116l.286-.107a.536.536,0,0,1,.187-.007,7.55,7.55,0,0,0,1.025.144h.275c.264-.083.449-.021.412.137l.53-.184L237.2.175a5.361,5.361,0,0,0,1.316.054c.291-.042,79.322.157,79.633.147s1.355.133,1.668.161L319.8.369a.712.712,0,0,1,.227-.031l.4.117A4.325,4.325,0,0,1,321.644.5a9.691,9.691,0,0,0,.973-.039,3.95,3.95,0,0,0,.97.033c.208-.046,1.368-.031,2.024-.022l.568.106A6.34,6.34,0,0,0,327,.5l.208-.009a2.343,2.343,0,0,0,.632,0l.012,0,.522.186a2.171,2.171,0,0,1,1.3.045,1.737,1.737,0,0,0,.712.409,1.577,1.577,0,0,1,.487.031c.022.034-.128.163-.332.212s-.226.441-.553.646l.11.254.025.059a.131.131,0,0,1-.175.116.572.572,0,0,0-.388.034h.005c.568.1-.1.274.166.392a.035.035,0,0,1,0,.067l-.43.171c-.019.13-.483.272-1.032.317l-.488-.166-.08-.027a8.189,8.189,0,0,1-1.141.114c-.309,0-1.35-.032-1.638,0l-.266,0-.262,0c-.279-.022-.608-.042-.73-.044s-.58-.013-.728.005-1.136.035-1.857.034-81.122-.008-81.538-.03-1.524.133-1.621.133l-.09,0-.546.018a11.093,11.093,0,0,0-1.561-.023c-.272.032-1.155-.066-1.381-.052s-1.029.041-1.3.014-1.59.034-2.229.042h-2.352a5.514,5.514,0,0,1-1.044-.011c-.267-.143-.623.058-.823-.069a1.265,1.265,0,0,0-.374-.017,4.846,4.846,0,0,1-.786.063l-.392-.13a2.315,2.315,0,0,1-.888.1c-.2-.035-.633-.055-.868-.086s-.953.091-1.156.041a6.809,6.809,0,0,0-1.141.135c-.225.019-1.071-.137-1.492-.171l-.448.122-.319.087c-.626-.041-1.245-.1-1.376-.121s-.726-.061-1.046-.084a17.9,17.9,0,0,0-2.117.287l-.4-.246a1.062,1.062,0,0,0-.383,0c-.432.153-.928-.1-1.371.037a2.109,2.109,0,0,1-.606.053c-.375-.017-.74-.085-1.111-.087H210a7.264,7.264,0,0,1-1.006.061c-.2-.011-.927-.017-1.1-.053a5.7,5.7,0,0,0-1.057.136c-.222.037-.812-.118-1.025-.08a12.707,12.707,0,0,1-1.56-.018H203.9c-.342,0-.685.047-1.026.044l-.635,0c-.694-.036-1.818-.061-2.5-.055l-.571.071-.5.062c-.511-.047-1.408-.078-2-.07h-5.429c-.544,0-1.087-.007-1.629,0l-.337.006c-.369.035-.725.07-.791.074s-.572-.024-.983-.054-2.711.045-2.876.021-.622-.017-.791-.027-1.007.068-1.442.076h-7.057c-.446,0-1.773.018-2.947.034s-4.634.126-5.079.195l-.132-.044-.337-.111a2.454,2.454,0,0,1-1.023-.006l-.417.118a5.681,5.681,0,0,1-1.061.012h-.588c-.646,0-1.4.017-1.673.045a7.868,7.868,0,0,1-1.544-.157l-.208.118-.3.171a2.842,2.842,0,0,0-1.031-.137c-.329.02-1.407.05-1.663.043s-1.266.063-1.733.033l-.426-.014-.449-.015c-.5.008-1.122.038-1.383.067s-1.029.049-1.438.122l-.475-.067a10.836,10.836,0,0,0-1.345-.011h-.452a10.1,10.1,0,0,0-1.373.092h-.467a22.752,22.752,0,0,0-2.42-.061,41.929,41.929,0,0,0-4.23.245l-.323-.144a6.834,6.834,0,0,0-.782.064l-.267.013a4.656,4.656,0,0,1-1.009-.134,10.727,10.727,0,0,0-1.489.12c-.3,0-1.326,0-1.625,0s-1.364.031-1.707.062h-.311c-.292,0-.589-.061-.877-.054l-.561.012c-.614-.009-1.553-.013-2.089-.008s-2.127.106-2.458.077l-.3-.006-.435-.01a11.463,11.463,0,0,1-1.3,0c-.242-.024-1.062.124-1.385.14s-1.514,0-1.887,0-1.987,0-2.762.027-3.474.059-4.27.063-3.029.017-3.193.054a8.918,8.918,0,0,1-1.115-.069c-.215-.013-1,.118-1.38.128s-1.908,0-2.531,0-2.747,0-3.347.026-3.169.053-4.363.053H97.151c-1.244,0-2.532,0-2.861,0l-.245.092c-.232.087-.435-.191-.757-.017l-.065.035a4.96,4.96,0,0,0-.935.026c-.223.035-1.07-.095-1.577-.045h-.463l-3.529.007c-3.882,0-7.461-.035-7.956-.079l-.378.151-.058.023-.808-.051a8.769,8.769,0,0,0-1.209.022c-.1.034-.534-.044-.653-.023a8.438,8.438,0,0,1-.969.026L74.43,4.8,73.2,4.832l-.269,0a1.943,1.943,0,0,1-.645-.072,7.293,7.293,0,0,0-.873.046L71.171,4.8c-.118-.006-.271-.065-.334-.052l-.926.186c-1.075-.052-2.851-.094-3.945-.092H62.483c-.641.008-1.416,0-1.723-.026a17.916,17.916,0,0,0-1.885.25l-.319-.2a.979.979,0,0,0-.367-.016l-.453.116a15.232,15.232,0,0,0-1.868-.041l-.471.016c-.539.018-1.085,0-1.628,0h-6.74c-.547,0-1.332-.018-1.744-.045s-1.587.115-1.735.092-1.071-.052-1.711-.066-2.5.1-2.722.1a9.619,9.619,0,0,1-1.093-.052,8.091,8.091,0,0,0-1.121.081c-.214.013-.917-.084-1.192-.054s-1.226.052-1.485.067-1.108-.083-1.3-.065S31.8,5.031,31.3,5.03s-2.525-.022-3.4-.059l-.747.16-.134.029c-.214-.017-.746-.026-1.185-.02l-.279-.062-.458-.1a4.531,4.531,0,0,1-1.145.106l-.336.043-.361.047c-.467-.021-1.012-.026-1.212-.01s-1.655-.127-2.9-.161l-1.034.22-.37.079c-.412-.037-.973-.066-1.246-.064s-1.213,0-1.481.013-.9-.047-1.011-.03-.735.021-1.083.018-1.5-.012-1.788-.024S9.989,5.233,9.747,5.2s-.8.108-.869.082a1.243,1.243,0,0,0-.489-.057,5.383,5.383,0,0,1-.947.105H7.172c-.5,0-1,0-1.494,0H5.4a.936.936,0,0,0-.316-.144c-.05,0-.194.034-.21.078a5.648,5.648,0,0,1-1.192.014H2.92a2.918,2.918,0,0,1-.583-.025c.073-.009.218-.088.105-.148a.326.326,0,0,1-.129-.353c.051-.072.09-.289-.071-.289a1.56,1.56,0,0,0-.493.052.064.064,0,0,1-.035.116,1.64,1.64,0,0,1-.476-.095c-.145-.052-.857-.16-1-.218s-.4-.3-.117-.325.6.285.781.346h.23a.462.462,0,0,0,.232-.086l.027-.02a.355.355,0,0,0-.223-.046c-.07.011-.3.009-.3-.036a.755.755,0,0,1,.508-.222,4.6,4.6,0,0,0,1.079-.224c0-.06.1-.246.219-.18a1.379,1.379,0,0,0,.79.094l.065-.076c.085-.1.142-.078.325-.031l.127.033c.2,0,.738.009,1.194.011A7.416,7.416,0,0,0,6.63,3.379c-.1-.017.242-.131.981-.212l.8.131a4.025,4.025,0,0,0,.475.057L9,3.36c.2-.025.264-.093.145-.153s-.314-.231-.175-.248l.116.007a3.868,3.868,0,0,0,.384.056l.453-.1a3.27,3.27,0,0,0,.705.22c.109.006.555,0,.448-.048s0-.146.225-.222a6.215,6.215,0,0,1,1.207-.084c.153.007.779-.009,1.006,0s.9-.01,1.216.028a7.629,7.629,0,0,0,1.115-.207,1.838,1.838,0,0,1,.52.171.3.3,0,0,0,.208.008V2.767l.008-.27c.524.041,1.229.127,1.567.192l.423-.091.383-.083c.528-.025,1.138-.077,1.355-.115a6.413,6.413,0,0,1,.843.108l.032-.025.058-.045a4.024,4.024,0,0,1,.708.028H22.2l.367,0c.387-.037.835-.078.993-.091s.86-.028,1.162-.043,1.361-.042,1.68-.022,1.357-.122,1.672-.135,1.226.056,1.371.014.725.042.868,0,.633.04.721.009a1.31,1.31,0,0,1,.518-.054,2.445,2.445,0,0,0,.7.085c.183-.022.895-.042,1.179-.031s1.138-.029,1.349-.021a9.658,9.658,0,0,0,1.04-.054c.156-.026.795-.061,1.087-.086a9.386,9.386,0,0,1,1.345.177c.186.026.406-.184.507-.2l.054.011.422.083c.43-.061.82-.12.867-.131l.03,0a3.627,3.627,0,0,0,.694.087l.23-.024a2.107,2.107,0,0,0,.582-.025,4.493,4.493,0,0,1,.95.037l.243.02L43,2.084c.192-.015.563-.035.827-.044a9.374,9.374,0,0,1,1.546.078l.4-.132c.229-.075.7.049,1-.073.028-.011.244.047.381.061l.6.062a11.437,11.437,0,0,0,1.483-.143c.15-.045.7.035.819-.017a2.27,2.27,0,0,1,.676.092c.079.012.439.022.709.046s1.277-.083,1.76-.1l.353.132.052.019a1.237,1.237,0,0,0,.494-.073,2.775,2.775,0,0,1,.653-.108c.2-.013,1.2.021,1.729.065l.425-.162c.108-.041.467.02.654-.012l.42-.07a8.711,8.711,0,0,0,.927.151c.148.007.7-.043.9-.013l.182.037c.234.048.344-.188.643-.034.028.015.335-.06.514-.061H61.4c.274.028.577.061.674.074s.694-.02,1.055-.009,1.306-.145,1.4-.126.583.12.838.2l.251-.152.382-.231c.56.1,1.276.2,1.591.228a11.86,11.86,0,0,0,1.62-.126c.245-.04.916-.043,1.158-.068l.158.042.176.047a.937.937,0,0,0,.629,0L71.5,1.6l.028-.01a1.091,1.091,0,0,1,.389.039,2.031,2.031,0,0,0,.674.063,9.659,9.659,0,0,1,1.354-.016c.2.022.68.009.878.029s.638-.028.8-.023a6.636,6.636,0,0,0,.963-.073,13.97,13.97,0,0,1,1.513.118l.27-.144a1.1,1.1,0,0,1,.263,0l.552.032A8.394,8.394,0,0,0,80.8,1.561c.282-.059,1.332.1,1.689.1l.287-.029.267-.026c.3,0,.779-.031,1.073-.058a7.358,7.358,0,0,1,1.174.14l.068-.011.8-.131c.921.018,1.862.032,2.093.029A8.254,8.254,0,0,1,89.7,1.7l.313-.2.138-.09a4.466,4.466,0,0,1,.9.172,4.084,4.084,0,0,0,.849-.1c.157-.015.656.089.809.1l.071-.023.376-.124A11.063,11.063,0,0,0,94.3,1.6a7.828,7.828,0,0,0,1.179-.1c.181-.036.8.039.9.027a3.739,3.739,0,0,0,.54-.122c.1-.042.507.025.6-.024l.3.056.336.061c.5-.036,1.176-.089,1.5-.119s1.168.05,1.311.037a8.3,8.3,0,0,1,.993.051l.248.009.089,0c.139-.061.28-.062.313,0a.609.609,0,0,0,.495.157c.2-.046.822-.175.983-.205s1.3-.035,1.494-.019.847-.105,1.1-.115,1.1.006,1.312.038,1.307-.013,1.869-.017l.348-.081.312-.072c.2.059.436.133.532.165a9.717,9.717,0,0,0,1.376-.079,16.89,16.89,0,0,1,1.947-.013,9.07,9.07,0,0,0,1.106.008c.253-.019,1.138-.047,1.4-.038a9.047,9.047,0,0,0,1.108-.1,2.621,2.621,0,0,1,.6.08l.035,0c.236-.031.463-.084.7-.092.212-.007.45.061.653.048l.309-.02c.348-.012.815-.038,1.038-.059s.741.082.79.039l.07-.031.052-.023a6.507,6.507,0,0,1,.794.028c.342.028,1.867-.049,2.126-.024l.208.038.261.048a2.612,2.612,0,0,1,.83-.035l.175-.023.308-.04a2.809,2.809,0,0,1,.874-.1,6.715,6.715,0,0,0,1.061-.013c.221-.03.67-.022.855-.035a7.075,7.075,0,0,1,.858.044c.162.02.631-.022.694.009a2.194,2.194,0,0,0,.739.052c.279-.034,1.921-.017,2.487-.026s1.621-.134,1.838-.157l.282.028.542.054c.645-.006,1.371-.011,1.613-.01l.243-.04L139.336.8c.413,0,.919.011,1.124.032s.912-.022,1.088-.009l.165.014.153.013c.163.011.722,0,1.244-.026l.464-.031.4-.026c.44-.023.833-.043.871-.044s.309.026.55.044,1.017.038,1.219.063a3.413,3.413,0,0,0,.773.067,1.956,1.956,0,0,1,.563-.1c.145,0,.68-.109.985-.115s1.513-.016,1.992-.025,1.934.044,2.153.061.858-.094,1-.074.422.017.519.029.8-.04,1.37-.1L156.5.6l.39.017A4.239,4.239,0,0,1,158.03.579l.285.009L158.6.6a2.863,2.863,0,0,1,.961.035,13.474,13.474,0,0,0,1.609-.194l.4.114a.614.614,0,0,0,.23-.034l.071-.034a.792.792,0,0,1,.37-.126,7.1,7.1,0,0,1,.933.1c.21.024.994.011,1.2.034a6.484,6.484,0,0,0,.8-.022c.154-.009.852.027,1.138.048s1.289-.071,1.614-.044l.127-.042c.408-.135.549.1.8.059l.264-.039a4.782,4.782,0,0,1,.863-.176c.225-.018,1.06.022,1.279.04a10.185,10.185,0,0,0,1.2-.02,7.044,7.044,0,0,1,1.161.062A10.044,10.044,0,0,0,175,.321l.42.065a1.622,1.622,0,0,0,.948-.1l.864-.057a11.5,11.5,0,0,0,2.717.018c.342-.033.654.18.994-.023A4.461,4.461,0,0,1,181.972.2l.2.005a2.195,2.195,0,0,0,.56.044c.1-.016.354-.062.554-.113a6.981,6.981,0,0,1,.935.118c.188-.01.645-.092.735-.1a4.209,4.209,0,0,1,.7.132h.188a5.259,5.259,0,0,0,.57-.088l.327-.037c.342.048.7.1.8.108a2.047,2.047,0,0,0,.472-.055c.12-.028.548.038.655.028l.08-.021c.108-.029.2-.1.289-.1.232.009.459.072.679.066.285-.007.555-.074.841-.088l.254-.012a4.318,4.318,0,0,0,.895-.027l.221.069.144.045c.244.007.728.024,1.076.038s1.405-.078,1.634-.035,1.5-.019,2.314.051L197.856.1a2.746,2.746,0,0,1,.8,0l.369.069c.35-.043.808-.118,1.016-.168h.188a2.828,2.828,0,0,1,.558.1l.1.022a12.544,12.544,0,0,0,1.373.094c.657.022,2.317-.2,2.359-.192s.123.048.179.066a7.988,7.988,0,0,0,.868-.024c.3-.019,1.316-.054,1.59-.042s1.178.134,1.405.176.954-.061,1.131-.009a6.8,6.8,0,0,0,1.354-.2l.413.145.179.063C212.281.15,213.133.1,213.63.092l.451.01.468.01A5.4,5.4,0,0,0,216.061.04l.433.135c.336.105.726-.195,1.178-.049A1.491,1.491,0,0,0,218.7.1a.4.4,0,0,1,.131,0l.308.049c.34.017.725.044.858.06S220.74.131,221.032.1l.25,0,.518.009c.568,0,1.517-.015,2.11-.024l.543.007.339,0c.369.038.825.08,1.011.092A6.138,6.138,0,0,0,226.6.133a6.542,6.542,0,0,1,.745.077l.02-.013.278-.186c.322.1,1.258.153,1.405.2" transform="translate(0 0)" fill="#ee8b3f"/>
    </g>
  </g>
</svg>
