<svg id="Group_48" data-name="Group 48" xmlns="http://www.w3.org/2000/svg" xmlns:xlink="http://www.w3.org/1999/xlink" width="87.5" height="87.356" viewBox="0 0 87.5 87.356">
  <defs>
    <clipPath id="clip-path">
      <rect id="Rectangle_105" data-name="Rectangle 105" width="87.5" height="87.356" fill="#ee8b3f"/>
    </clipPath>
  </defs>
  <g id="Group_47" data-name="Group 47" clip-path="url(#clip-path)">
    <path id="Path_42" data-name="Path 42" d="M84.952,22.691H82.063a43.692,43.692,0,0,0-76.627,0H2.548A2.55,2.55,0,0,0,0,25.238v36.88a2.55,2.55,0,0,0,2.548,2.547H5.437a43.692,43.692,0,0,0,76.628,0h2.888A2.55,2.55,0,0,0,87.5,62.118V25.238a2.55,2.55,0,0,0-2.548-2.547M2.565,25.256H55.571L53.006,27.82H12.61A1.282,1.282,0,0,0,11.328,29.1a4.921,4.921,0,0,1-4.916,4.915A1.283,1.283,0,0,0,5.13,35.3V52.056a1.283,1.283,0,0,0,1.283,1.283,4.921,4.921,0,0,1,4.916,4.915,1.282,1.282,0,0,0,1.282,1.283h8.681L18.726,62.1H2.565Zm55.571-2.565H16.7A34.3,34.3,0,0,1,43.523,9.406,33.949,33.949,0,0,1,64.2,16.189a.26.26,0,0,1,.106.2.278.278,0,0,1-.082.22ZM23.855,56.971H13.783a7.5,7.5,0,0,0-6.088-6.087V36.473a7.5,7.5,0,0,0,6.088-6.087h21.33a15.852,15.852,0,0,0-5.382,20.709ZM84.935,62.1h-42.3a1.283,1.283,0,1,0,0,2.565H70.8a34.6,34.6,0,0,1-6.673,6.525,1.282,1.282,0,1,0,1.53,2.058,37.125,37.125,0,0,0,8.33-8.583h5.122a41.127,41.127,0,0,1-70.721,0h5.1c.232.334.468.667.711.992a2.831,2.831,0,0,0,2.068,1.131q.1.008.206.008a2.847,2.847,0,0,0,2.013-.834L37.724,46.73a1.282,1.282,0,1,0-1.814-1.813l-4.263,4.262a13.3,13.3,0,0,1,17.6-17.6l-9.476,9.477a1.282,1.282,0,0,0,1.814,1.813L66.034,18.42a2.843,2.843,0,0,0-.305-4.287A36.481,36.481,0,0,0,43.754,6.84h-.247A36.878,36.878,0,0,0,13.515,22.691H8.39a41.127,41.127,0,0,1,70.721,0h-5.1c-.233-.335-.47-.668-.712-.992a2.842,2.842,0,0,0-4.287-.305L21.466,68.936a2.843,2.843,0,0,0,.305,4.287,36.481,36.481,0,0,0,21.975,7.293h.247a36.783,36.783,0,0,0,16.858-4.233,1.282,1.282,0,0,0-1.2-2.268A34.154,34.154,0,0,1,23.3,71.167a.26.26,0,0,1-.106-.2.28.28,0,0,1,.082-.221l6.084-6.084H37.17a1.283,1.283,0,0,0,0-2.565H31.929l2.564-2.564h40.4a1.282,1.282,0,0,0,1.283-1.283,4.921,4.921,0,0,1,4.916-4.915,1.283,1.283,0,0,0,1.282-1.283V35.3a1.283,1.283,0,0,0-1.282-1.283A4.921,4.921,0,0,1,76.172,29.1a1.282,1.282,0,0,0-1.283-1.283H66.21l2.564-2.564H84.935Zm-46.686-6.32,17.6-17.6a13.3,13.3,0,0,1-17.6,17.6m21.359-12.1a15.838,15.838,0,0,0-1.84-7.417l5.876-5.875H73.717a7.5,7.5,0,0,0,6.088,6.088v14.41a7.5,7.5,0,0,0-6.088,6.087H52.387a15.858,15.858,0,0,0,7.221-13.293" fill="#ee8b3f"/>
  </g>
</svg>
