<svg xmlns="http://www.w3.org/2000/svg" xmlns:xlink="http://www.w3.org/1999/xlink" width="98" height="8" viewBox="0 0 98 8">
  <defs>
    <clipPath id="clip-path">
      <path id="Path_59" data-name="Path 59" d="M0,0H98V8H0Z" fill="#ee8b3f"/>
    </clipPath>
  </defs>
  <g id="Group_71" data-name="Group 71" transform="translate(0 0)">
    <g id="Mask_Group_1" data-name="Mask Group 1" transform="translate(0 0)" clip-path="url(#clip-path)">
      <path id="Path_32" data-name="Path 32" d="M351.659.322a1.227,1.227,0,0,0,.879-.136L352.57.2c.328.178.6-.075.724-.03a1.676,1.676,0,0,0,1.212.008c.126-.036.71.17,1.121.2l.3.024A7.243,7.243,0,0,1,357.2.343c.31.022,1.577.123,2.136.174l.439-.161a.841.841,0,0,1,.286-.011,11.847,11.847,0,0,0,1.574.217l.422,0c.405-.124.69-.032.633.205L363.5.493l.678-.23A8.422,8.422,0,0,0,366.2.344c.447-.063,1.785.236,2.263.221s2.081.2,2.561.242l-.032-.254a1.117,1.117,0,0,1,.348-.046l.619.176a6.794,6.794,0,0,1,1.871.074c.276.095,1.249-.106,1.494-.059a6.206,6.206,0,0,0,1.489.049c.319-.069,2.1-.047,3.108-.032l.872.159a9.956,9.956,0,0,0,1.266-.124l.319-.013a3.683,3.683,0,0,0,.97,0l.018.006.8.279a3.408,3.408,0,0,1,1.988.067,2.682,2.682,0,0,0,1.094.614,2.476,2.476,0,0,1,.747.046c.034.05-.2.244-.51.318s-.347.661-.849.969l.169.382.038.088a.2.2,0,0,1-.268.174.9.9,0,0,0-.6.05h.008c.872.153-.16.411.254.587a.053.053,0,0,1,0,.1l-.661.256c-.029.194-.742.408-1.585.476l-.749-.249-.123-.04a12.859,12.859,0,0,1-1.751.172c-.474.006-2.073-.048-2.515-.007l-.408,0-.4,0c-.428-.034-.933-.063-1.121-.065s-.89-.02-1.118.008-1.743.053-2.851.05-4.55-.011-5.187-.044-2.34.2-2.489.2l-.139,0-.838.028a17.431,17.431,0,0,0-2.4-.034c-.417.048-1.773-.1-2.121-.078s-1.58.061-1.995.021-2.441.051-3.422.063h-3.612a8.664,8.664,0,0,1-1.6-.016c-.41-.215-.956.087-1.263-.1a1.986,1.986,0,0,0-.574-.026,7.613,7.613,0,0,1-1.208.094l-.6-.2a3.634,3.634,0,0,1-1.363.157c-.3-.052-.972-.083-1.332-.129s-1.463.136-1.774.062a10.69,10.69,0,0,0-1.751.2c-.345.028-1.645-.206-2.29-.256l-.688.184-.49.13c-.961-.061-1.911-.143-2.113-.182s-1.115-.091-1.606-.126a28.1,28.1,0,0,0-3.25.43l-.608-.369a1.668,1.668,0,0,0-.588,0c-.664.229-1.425-.157-2.105.056a3.311,3.311,0,0,1-.93.08c-.576-.025-1.137-.128-1.707-.131l-.5,0a11.413,11.413,0,0,1-1.545.092c-.31-.016-1.423-.026-1.686-.079a8.952,8.952,0,0,0-1.623.2c-.34.056-1.246-.178-1.574-.12a19.968,19.968,0,0,1-2.395-.028h-.541c-.525,0-1.052.07-1.576.066l-.975-.007c-1.066-.055-2.791-.092-3.837-.083l-.876.106-.769.094c-.784-.07-2.162-.116-3.063-.1h-8.335c-.835,0-1.67-.01-2.5,0L290.6,5.2c-.567.053-1.114.1-1.215.112s-.878-.036-1.509-.081-4.162.067-4.416.031-.955-.025-1.215-.04-1.546.1-2.213.114H269.2c-.685,0-2.721.027-4.525.051s-7.114.188-7.8.292l-.2-.065-.518-.167a3.854,3.854,0,0,1-1.571-.009l-.641.177a8.926,8.926,0,0,1-1.63.017h-.9c-.992-.005-2.147.025-2.569.068a12.355,12.355,0,0,1-2.37-.235l-.319.177-.462.257a4.459,4.459,0,0,0-1.583-.206c-.505.03-2.161.075-2.554.064s-1.944.094-2.661.049l-.655-.021-.69-.022c-.765.011-1.722.057-2.124.1s-1.58.074-2.207.182l-.73-.1a17.028,17.028,0,0,0-2.065-.017h-.695a15.857,15.857,0,0,0-2.109.137H226.9a35.753,35.753,0,0,0-3.715-.092c-1.651.02-6.224.217-6.495.367l-.5-.217a10.734,10.734,0,0,0-1.2.1l-.41.019a7.307,7.307,0,0,1-1.549-.2,16.85,16.85,0,0,0-2.286.18c-.456,0-2.036,0-2.5,0s-2.095.047-2.621.094h-.477c-.448,0-.9-.091-1.346-.081l-.861.018c-.943-.014-2.384-.02-3.207-.011s-3.265.159-3.773.116l-.461-.009-.668-.015a18.014,18.014,0,0,1-2,0c-.371-.036-1.631.186-2.127.21s-2.324,0-2.9,0-3.051,0-4.24.04-5.334.088-6.557.094-4.65.026-4.9.081a14.01,14.01,0,0,1-1.711-.1c-.33-.019-1.539.176-2.119.192s-2.929-.006-3.886,0-4.217,0-5.138.04-4.865.08-6.7.08h-3.4c-1.91,0-3.887,0-4.393.007l-.376.137c-.356.13-.668-.286-1.163-.026l-.1.052a7.794,7.794,0,0,0-1.435.038c-.342.053-1.643-.142-2.421-.067h-.712l-5.418.01c-5.96,0-11.456-.052-12.215-.118l-.581.227-.089.035-1.24-.076a13.78,13.78,0,0,0-1.856.033c-.152.051-.819-.066-1-.035a13.259,13.259,0,0,1-1.488.038l-.394-.02-1.89.048-.413,0a3.049,3.049,0,0,1-.99-.108,11.458,11.458,0,0,0-1.34.069l-.371-.017c-.182-.009-.416-.1-.513-.078l-1.422.279c-1.651-.079-4.377-.141-6.058-.137H95.931c-.984.011-2.175-.006-2.646-.039a28.122,28.122,0,0,0-2.894.375l-.49-.306a1.537,1.537,0,0,0-.564-.024l-.7.174a23.936,23.936,0,0,0-2.868-.061L85.05,7.4c-.827.028-1.666.006-2.5.006H72.2c-.839,0-2.045-.027-2.678-.068s-2.437.172-2.665.137-1.645-.079-2.628-.1-3.832.157-4.179.15a15.113,15.113,0,0,1-1.679-.078,12.71,12.71,0,0,0-1.72.122c-.328.019-1.408-.126-1.83-.081s-1.882.078-2.279.1-1.7-.125-2-.1-1.731.056-2.5.054-3.877-.032-5.218-.088l-1.147.24-.206.044c-.328-.025-1.146-.038-1.819-.03l-.428-.094-.7-.153a7.116,7.116,0,0,1-1.757.159l-.516.065-.554.07c-.718-.032-1.554-.038-1.861-.015S31.3,7.551,29.394,7.5l-1.588.33-.568.118c-.633-.055-1.494-.1-1.913-.1s-1.862.007-2.273.02S21.67,7.8,21.5,7.828s-1.129.031-1.663.028-2.3-.018-2.745-.036-1.754.029-2.127-.016-1.226.162-1.334.122a1.95,1.95,0,0,0-.75-.085A8.452,8.452,0,0,1,11.426,8h-.416c-.765,0-1.529,0-2.293,0H8.3a1.454,1.454,0,0,0-.485-.217c-.077,0-.3.051-.322.116a8.874,8.874,0,0,1-1.83.021L5,7.919H4.483a4.584,4.584,0,0,1-.895-.038c.112-.014.334-.133.162-.221s-.277-.422-.2-.529S3.69,6.7,3.442,6.7a2.448,2.448,0,0,0-.756.077.1.1,0,0,1-.054.174A2.571,2.571,0,0,1,1.9,6.805C1.677,6.728.585,6.566.371,6.478s-.607-.447-.18-.487.915.427,1.2.519h.353A.72.72,0,0,0,2.1,6.381l.042-.03A.556.556,0,0,0,1.8,6.282c-.108.016-.456.013-.456-.054A1.17,1.17,0,0,1,2.122,5.9,7.212,7.212,0,0,0,3.779,5.56c0-.089.151-.369.336-.27a2.163,2.163,0,0,0,1.214.141l.1-.114c.131-.151.219-.117.5-.046l.2.049c.308.005,1.134.013,1.833.016a11.64,11.64,0,0,0,2.222-.268c-.154-.026.371-.2,1.506-.318l1.224.2a6.318,6.318,0,0,0,.73.085l.179.008c.3-.037.405-.14.223-.229s-.482-.346-.268-.371l.179.01c.209.011.481.106.59.084l.7-.146a5.108,5.108,0,0,0,1.083.33c.168.009.852-.007.688-.071s0-.219.345-.333a9.764,9.764,0,0,1,1.853-.126c.236.011,1.2-.013,1.545.005s1.385-.015,1.867.042a11.961,11.961,0,0,0,1.711-.311,2.868,2.868,0,0,1,.8.256.472.472,0,0,0,.319.011l0-.042.012-.406c.8.061,1.887.19,2.406.288l.65-.137.588-.124c.81-.038,1.747-.115,2.081-.172a10.065,10.065,0,0,1,1.294.162l.049-.037.089-.067a6.323,6.323,0,0,1,1.087.042h.385l.564,0c.595-.055,1.281-.116,1.525-.136s1.32-.042,1.784-.064,2.09-.063,2.58-.032,2.084-.183,2.567-.2,1.882.083,2.105.022,1.114.063,1.332,0,.972.061,1.107.013a2.057,2.057,0,0,1,.795-.081,3.838,3.838,0,0,0,1.07.127c.28-.033,1.374-.063,1.81-.046s1.747-.044,2.072-.031A15.175,15.175,0,0,0,55,3.182c.24-.04,1.22-.091,1.67-.129a14.732,14.732,0,0,1,2.065.265c.285.039.624-.277.778-.3l.083.016.648.124c.661-.092,1.258-.18,1.331-.2l.046.006a5.693,5.693,0,0,0,1.066.13l.353-.036a3.31,3.31,0,0,0,.893-.038,7.059,7.059,0,0,1,1.459.055l.373.03.253.02c.294-.023.864-.053,1.269-.067a14.727,14.727,0,0,1,2.373.117l.618-.2c.351-.112,1.074.073,1.539-.109.043-.017.374.071.585.092l.923.094A17.96,17.96,0,0,0,75.6,2.841c.231-.067,1.07.052,1.257-.026a3.562,3.562,0,0,1,1.038.139c.122.017.675.034,1.089.069s1.961-.125,2.7-.156l.542.2.08.029a1.941,1.941,0,0,0,.758-.109,4.353,4.353,0,0,1,1-.161c.314-.02,1.836.032,2.655.1l.653-.244c.166-.062.718.03,1-.017l.645-.106a13.665,13.665,0,0,0,1.423.226c.228.011,1.075-.064,1.383-.019l.279.056c.359.072.528-.283.987-.051.043.022.514-.09.789-.092l.388,0c.42.042.886.092,1.035.111s1.066-.03,1.62-.013,2.005-.217,2.155-.19.895.18,1.286.3l.385-.228.587-.347c.859.146,1.959.3,2.443.342a18.629,18.629,0,0,0,2.487-.189c.376-.061,1.406-.064,1.777-.1l.242.063.27.07a1.471,1.471,0,0,0,.966,0l.251-.085.043-.015a1.714,1.714,0,0,1,.6.059,3.188,3.188,0,0,0,1.035.094,15.178,15.178,0,0,1,2.079-.024c.311.034,1.044.013,1.348.043s.98-.042,1.232-.035a10.424,10.424,0,0,0,1.479-.109,21.945,21.945,0,0,1,2.323.177l.414-.217a1.722,1.722,0,0,1,.4,0l.847.048a13.189,13.189,0,0,0,2.475-.077c.433-.089,2.045.156,2.594.15l.44-.043.41-.04c.454-.006,1.2-.046,1.648-.087a11.55,11.55,0,0,1,1.8.211l.1-.017,1.221-.2c1.414.028,2.859.048,3.213.044a12.964,12.964,0,0,1,2.232.186l.481-.307.213-.135a7,7,0,0,1,1.38.258,6.413,6.413,0,0,0,1.3-.144c.242-.023,1.007.134,1.241.147l.109-.035.578-.186a17.362,17.362,0,0,0,1.756.246,12.3,12.3,0,0,0,1.81-.143c.277-.055,1.234.058,1.38.04a5.856,5.856,0,0,0,.829-.183c.16-.063.778.037.927-.036l.468.083.516.092c.772-.054,1.805-.134,2.3-.178s1.793.075,2.013.055a13.041,13.041,0,0,1,1.525.077l.38.013.137,0c.214-.091.43-.093.481,0a.949.949,0,0,0,.759.235c.3-.069,1.261-.262,1.509-.308s1.988-.052,2.293-.028,1.3-.158,1.683-.173,1.682.009,2.015.057,2.007-.019,2.869-.025l.534-.121.479-.108c.3.088.67.2.816.247a15.266,15.266,0,0,0,2.113-.119,26.542,26.542,0,0,1,2.989-.019,14.252,14.252,0,0,0,1.7.012c.388-.029,1.747-.071,2.149-.057a14.208,14.208,0,0,0,1.7-.143,4.114,4.114,0,0,1,.916.12l.054-.007c.362-.046.712-.126,1.081-.138.325-.011.692.092,1,.072l.474-.03c.534-.017,1.251-.057,1.594-.088s1.138.122,1.214.058l.108-.046.08-.034a10.225,10.225,0,0,1,1.22.042c.525.042,2.866-.073,3.264-.036l.319.057.4.073a4.1,4.1,0,0,1,1.274-.052l.268-.034.473-.06a4.409,4.409,0,0,1,1.341-.147,10.552,10.552,0,0,0,1.63-.02c.339-.045,1.029-.033,1.312-.053a11.116,11.116,0,0,1,1.317.065c.248.03.969-.034,1.066.013a3.446,3.446,0,0,0,1.135.079c.428-.05,2.949-.026,3.818-.038s2.489-.2,2.822-.235l.433.042.832.081c.99-.009,2.105-.016,2.477-.015l.373-.06.482-.077c.635-.005,1.411.016,1.725.048s1.4-.033,1.671-.013l.253.022.236.02c.251.017,1.109,0,1.91-.039l.713-.046.607-.039c.676-.035,1.278-.065,1.337-.066s.474.039.844.066,1.562.057,1.871.095a5.36,5.36,0,0,0,1.188.1,3.067,3.067,0,0,1,.864-.151c.223,0,1.044-.163,1.512-.173S230.98,1,231.716.982s2.969.066,3.305.092,1.317-.141,1.542-.111.648.026.8.044,1.221-.06,2.1-.145l.818.035.6.026a6.66,6.66,0,0,1,1.748-.054l.437.013.444.013a4.5,4.5,0,0,1,1.475.052,21.154,21.154,0,0,0,2.47-.291l.621.172a.963.963,0,0,0,.353-.05l.109-.05a1.235,1.235,0,0,1,.568-.19,11.151,11.151,0,0,1,1.432.147c.322.036,1.526.017,1.839.051A10.189,10.189,0,0,0,253.6.7c.237-.013,1.308.041,1.747.073s1.979-.106,2.478-.065l.2-.063c.627-.2.842.144,1.232.088l.405-.059A7.494,7.494,0,0,1,260.986.41c.345-.027,1.628.033,1.964.06a16,16,0,0,0,1.844-.03,11.067,11.067,0,0,1,1.782.094,15.783,15.783,0,0,0,2.112-.052l.645.1a2.544,2.544,0,0,0,1.455-.152l1.326-.085a18.063,18.063,0,0,0,4.171.028c.525-.05,1,.27,1.526-.034A7.009,7.009,0,0,1,279.386.3l.3.008a3.447,3.447,0,0,0,.859.066c.148-.024.544-.094.85-.17a10.958,10.958,0,0,1,1.435.178c.288-.015.99-.139,1.129-.153a6.6,6.6,0,0,1,1.081.2h.288A8.251,8.251,0,0,0,286.208.3l.5-.056c.525.072,1.078.145,1.231.161a3.214,3.214,0,0,0,.725-.082c.185-.042.841.057,1.006.042l.123-.032c.166-.043.313-.151.444-.146.356.013.705.108,1.043.1.437-.011.852-.112,1.291-.132l.39-.018A6.785,6.785,0,0,0,294.335.1l.339.1.222.067c.374.011,1.118.036,1.653.057s2.158-.118,2.509-.053,2.309-.029,3.553.077l1.163-.19a4.314,4.314,0,0,1,1.224,0l.567.1C306.1.2,306.8.085,307.125.011h.288a4.435,4.435,0,0,1,.856.147l.16.033a19.707,19.707,0,0,0,2.109.141c1.009.033,3.558-.3,3.622-.288s.189.072.274.1a12.553,12.553,0,0,0,1.332-.036c.461-.028,2.021-.081,2.441-.063s1.808.2,2.158.264S321.831.217,322.1.3a10.667,10.667,0,0,0,2.079-.3l.635.218.274.095c.832-.088,2.139-.168,2.9-.176l.693.015.719.015a8.479,8.479,0,0,0,2.32-.107l.665.2c.516.158,1.115-.292,1.808-.074A2.339,2.339,0,0,0,335.782.15a.63.63,0,0,1,.2,0l.473.074c.522.025,1.114.065,1.317.09S338.908.2,339.356.155l.384.007.795.014c.872-.006,2.329-.022,3.239-.036l.833.011.521.007c.567.057,1.266.12,1.552.139A9.641,9.641,0,0,0,347.9.2a10.274,10.274,0,0,1,1.144.115l.031-.02L349.5.015c.494.15,1.931.229,2.158.307" transform="translate(0 0)" fill="#ee8b3f"/>
    </g>
  </g>
</svg>
