<svg xmlns="http://www.w3.org/2000/svg" xmlns:xlink="http://www.w3.org/1999/xlink" width="48.428" height="68.826" viewBox="0 0 48.428 68.826">
  <defs>
    <clipPath id="clip-path">
      <rect id="Rectangle_249" data-name="Rectangle 249" width="24.973" height="25.7" fill="#fff"/>
    </clipPath>
    <clipPath id="clip-path-2">
      <rect id="Rectangle_250" data-name="Rectangle 250" width="18.527" height="22.741" fill="#fff"/>
    </clipPath>
  </defs>
  <g id="Group_262" data-name="Group 262" transform="translate(-556.572 -1615.174)">
    <g id="Group_217" data-name="Group 217" transform="translate(535.341 1615.647)">
      <path id="Path_207" data-name="Path 207" d="M195.064,0h-17.69a7.613,7.613,0,0,0-7.6,7.6v17.69a7.613,7.613,0,0,0,7.6,7.6H186.1v3.157a2.042,2.042,0,0,0,1.2,1.874,2.075,2.075,0,0,0,.869.193,2.047,2.047,0,0,0,1.336-.5l5.522-4.725h.036a7.612,7.612,0,0,0,7.6-7.6V7.6a7.613,7.613,0,0,0-7.6-7.6m5.858,25.293a5.864,5.864,0,0,1-5.858,5.858h-.358a.874.874,0,0,0-.567.21L188.37,36.3a.317.317,0,0,1-.523-.241v-4.03a.873.873,0,0,0-.873-.873h-9.6a5.865,5.865,0,0,1-5.858-5.858V7.6a5.865,5.865,0,0,1,5.858-5.858h17.69A5.864,5.864,0,0,1,200.921,7.6Z" transform="translate(-146.535 -0.473)" fill="#fff"/>
      <path id="Path_208" data-name="Path 208" d="M224.25,19.9,215.9,24.779a14.6,14.6,0,0,1-3.389-1.593.375.375,0,0,1-.126-.379,1.053,1.053,0,0,1,.7-.672,2.375,2.375,0,0,1,2.157.3,2.794,2.794,0,0,0,3.574-4.3,7.46,7.46,0,0,0-2.375-1.3,2.793,2.793,0,0,0-5.584.121v.048a6.142,6.142,0,0,0-1.246.7.873.873,0,0,0,1.029,1.41,4.421,4.421,0,0,1,1.33-.661h0l.037-.012a.873.873,0,0,0,.593-.827v-.661a1.048,1.048,0,0,1,2.1,0v.537a.873.873,0,0,0,.669.849,5.851,5.851,0,0,1,2.333,1.136,1.048,1.048,0,0,1-1.341,1.611,4.076,4.076,0,0,0-3.786-.625l-.013,0a2.785,2.785,0,0,0-1.881,1.949,2.135,2.135,0,0,0,.656,2.062.73.73,0,0,0,.061.052,11.172,11.172,0,0,0,2.569,1.375L211.751,27.2a9.989,9.989,0,0,1-1.647-1.019,4.108,4.108,0,0,1-1.339-4.051c.015-.079.032-.156.05-.233a.873.873,0,0,0-1.7-.409c-.026.11-.049.216-.068.321a5.842,5.842,0,0,0,1.978,5.746,9.97,9.97,0,0,0,.973.668l-7.615,4.446a.873.873,0,0,0,.88,1.508l8.573-5c.876.39,1.8.737,2.716,1.061a1.149,1.149,0,0,1,.907,1.413,1.828,1.828,0,0,1-1.827,1.553,3.808,3.808,0,0,1-2.868-.733,2.794,2.794,0,0,0-3.059,4.676,9.272,9.272,0,0,0,3.154,1.417,2.794,2.794,0,0,0,5.584-.126v-.185a7.227,7.227,0,0,0,2.2-1.4,7.538,7.538,0,0,0,2.321-4.28,6.647,6.647,0,0,0-3.106-6.919l7.266-4.242a.873.873,0,0,0-.88-1.508m-5,12.379a5.786,5.786,0,0,1-1.781,3.284,5.48,5.48,0,0,1-2.147,1.227.874.874,0,0,0-.621.836v.8a1.048,1.048,0,0,1-2.1,0v-.609a.874.874,0,0,0-.763-.866,7.071,7.071,0,0,1-3.178-1.277,1.047,1.047,0,1,1,1.147-1.753,5.443,5.443,0,0,0,3.835,1.017,3.567,3.567,0,0,0,3.538-3.01,2.877,2.877,0,0,0-2.047-3.348c-.47-.166-.943-.338-1.407-.519L216.07,26.7a5,5,0,0,1,3.179,5.582" transform="translate(-173.721 -12.439)" fill="#fff"/>
    </g>
    <g id="Group_219" data-name="Group 219" transform="translate(556.572 1658.3)">
      <g id="Group_218" data-name="Group 218" clip-path="url(#clip-path)">
        <path id="Path_220" data-name="Path 220" d="M.455,14l6.114,3.494-.731,2.194a.9.9,0,0,0,.857,1.189h4.889V24.8a.9.9,0,0,0,1.806,0V20.873h4.889a.9.9,0,0,0,.857-1.189l-.965-2.9a.9.9,0,0,0-1.714.571l.569,1.707H7.948l.569-1.707a.9.9,0,0,0-.409-1.07L2.62,13.154l1.68-1.12a.9.9,0,0,0,.4-.751v-2.4l4.485,2.242a.9.9,0,0,0,1.272-1.056L9,4.959l1.272.424a.9.9,0,0,0,1.082-.432l1.133-2.127L13.62,4.95a.9.9,0,0,0,1.083.432l1.271-.424-1.46,5.111a.9.9,0,0,0,1.272,1.056l4.485-2.242v2.4a.9.9,0,0,0,.4.751l1.68,1.12-2.11,1.205a.9.9,0,0,0,.9,1.569L24.518,14a.9.9,0,0,0,.053-1.535L22.077,10.8V7.421a.9.9,0,0,0-1.307-.808L16.815,8.592l1.367-4.783a.9.9,0,0,0-1.154-1.1l-2.172.724L13.284.478a.9.9,0,0,0-1.594,0L10.118,3.427,7.946,2.7a.9.9,0,0,0-1.154,1.1L8.159,8.592,4.2,6.613A.9.9,0,0,0,2.9,7.421V10.8L.4,12.462A.9.9,0,0,0,.455,14" transform="translate(0)" fill="#fff"/>
      </g>
    </g>
    <g id="Group_221" data-name="Group 221" transform="translate(586.474 1655.35)">
      <g id="Group_220" data-name="Group 220" clip-path="url(#clip-path-2)">
        <path id="Path_221" data-name="Path 221" d="M1.139,17.333a13.025,13.025,0,0,0,3.3,1.333,2.221,2.221,0,0,0-.192.9c0,1.812,2.158,3.178,5.02,3.178s5.02-1.366,5.02-3.178a2.221,2.221,0,0,0-.192-.9,13.039,13.039,0,0,0,3.3-1.333,2.326,2.326,0,1,0-2.373-4,9.645,9.645,0,0,1-3.368,1.107V13.186a5.5,5.5,0,0,0,4.08-1.7C18.276,8.833,18.108,4,18.1,3.791a.88.88,0,0,0-1.218-.764l-3.94,1.706a.347.347,0,0,1-.481-.316V3.254A3.253,3.253,0,0,0,9.379,0,3.2,3.2,0,0,0,6.666,1.336L5.824.943a.872.872,0,1,0-.738,1.581l.987.461c0,.071-.008.142-.008.213V4.417a.349.349,0,0,1-.481.316L1.645,3.026a.88.88,0,0,0-1.218.764C.418,4,.25,8.833,2.8,11.49a5.513,5.513,0,0,0,4.138,1.7H7v1.27a9.763,9.763,0,0,1-3.484-1.125,2.326,2.326,0,1,0-2.373,4m11.12,1.714a.777.777,0,0,1,.28.516c0,.585-1.276,1.434-3.275,1.434s-3.275-.849-3.275-1.434a.777.777,0,0,1,.28-.516,19.918,19.918,0,0,0,3,.225c.957,0,2.95-.218,3-.225m-8.2-8.762C2.735,8.907,2.333,6.615,2.215,5.174L4.891,6.333A2.107,2.107,0,0,0,7.81,4.417V3.2A1.456,1.456,0,0,1,9.317,1.746a1.5,1.5,0,0,1,1.4,1.508V4.417a2.11,2.11,0,0,0,2.918,1.916l2.677-1.159c-.118,1.441-.52,3.733-1.846,5.111a3.781,3.781,0,0,1-2.877,1.158H6.938a3.783,3.783,0,0,1-2.877-1.158m4.679,2.9H9.9v1.42H9.866q-.549.021-1.1,0H8.74ZM1.825,15.036a.588.588,0,0,1,.8-.2A12.421,12.421,0,0,0,7.785,16.3a16.111,16.111,0,0,0,3.084-.012A12.316,12.316,0,0,0,15.9,14.833a.581.581,0,1,1,.593,1,12.4,12.4,0,0,1-4.131,1.429l-.015,0a17.583,17.583,0,0,1-6.177,0l-.015,0a12.413,12.413,0,0,1-4.131-1.429.583.583,0,0,1-.2-.8" transform="translate(0 0)" fill="#fff"/>
      </g>
    </g>
  </g>
</svg>
