<svg xmlns="http://www.w3.org/2000/svg" xmlns:xlink="http://www.w3.org/1999/xlink" width="86.625" height="62.534" viewBox="0 0 86.625 62.534">
  <defs>
    <clipPath id="clip-path">
      <rect id="Rectangle_118" data-name="Rectangle 118" width="86.625" height="62.535" fill="#7691d6"/>
    </clipPath>
  </defs>
  <g id="Group_53" data-name="Group 53" transform="translate(0 0)" opacity="0.24">
    <g id="Group_51" data-name="Group 51" transform="translate(0 0)" clip-path="url(#clip-path)">
      <path id="Path_47" data-name="Path 47" d="M18.379,40.459a65.688,65.688,0,0,1-6.518,19.428,1.774,1.774,0,0,0,2.417,2.4C32.4,51.725,40.351,36.318,41.338,23.964,42.192,13.307,34.922,2.327,23.9.329a20.273,20.273,0,1,0-5.522,40.13" transform="translate(0 -0.001)" fill="#7691d6"/>
      <path id="Path_48" data-name="Path 48" d="M39.407,40.459a65.688,65.688,0,0,1-6.518,19.428,1.774,1.774,0,0,0,2.417,2.4c18.125-10.567,26.073-25.974,27.06-38.328C63.22,13.307,55.95,2.327,44.929.329a20.273,20.273,0,1,0-5.522,40.13" transform="translate(24.19 -0.001)" fill="#7691d6"/>
    </g>
  </g>
</svg>
