<svg xmlns="http://www.w3.org/2000/svg" xmlns:xlink="http://www.w3.org/1999/xlink" width="286" height="5" viewBox="0 0 286 5">
  <defs>
    <clipPath id="clip-path">
      <path id="Path_63" data-name="Path 63" d="M0,0H286V5H0Z" fill="#ee8b3f"/>
    </clipPath>
  </defs>
  <g id="Group_86" data-name="Group 86" transform="translate(0 0)">
    <g id="Mask_Group_2" data-name="Mask Group 2" transform="translate(0 0)" clip-path="url(#clip-path)">
      <path id="Path_32" data-name="Path 32" d="M222.959.2a.788.788,0,0,0,.558-.085l.02.011c.208.111.382-.047.459-.019a1.077,1.077,0,0,0,.769.005c.08-.023.45.106.711.126l.193.015a4.658,4.658,0,0,1,.8-.04c.2.013,1,.077,1.354.109l.278-.1a.541.541,0,0,1,.182-.007,7.614,7.614,0,0,0,1,.135h.268c.257-.077.437-.02.4.128L340.468.308l.43-.144a5.416,5.416,0,0,0,1.281.051c.283-.039,1.132.148,1.434.138s1.319.125,1.624.151l-.021-.159a.718.718,0,0,1,.221-.029l.393.11a4.369,4.369,0,0,1,1.186.046c.175.059.792-.066.947-.037a3.99,3.99,0,0,0,.944.031c.2-.043,1.332-.029,1.971-.02l.553.1a6.4,6.4,0,0,0,.8-.078l.2-.008a2.368,2.368,0,0,0,.615,0l.012,0,.508.175a2.19,2.19,0,0,1,1.261.042,1.708,1.708,0,0,0,.693.384,1.591,1.591,0,0,1,.474.029c.021.032-.125.153-.323.2s-.22.413-.538.606l.107.238.024.055a.128.128,0,0,1-.17.109.576.576,0,0,0-.378.032h0c.553.1-.1.257.161.367a.033.033,0,0,1,0,.063l-.419.16c-.019.122-.471.255-1,.3l-.475-.156-.078-.025a8.267,8.267,0,0,1-1.11.107c-.3,0-1.314-.03-1.595,0l-.259,0-.255,0c-.271-.021-.592-.04-.711-.041s-.564-.013-.709.005-1.105.033-1.808.032-2.885-.007-3.289-.028-1.483.124-1.578.124l-.088,0-.531.017c-.571-.042-111.255-.051-111.519-.021s-1.124-.062-1.345-.049-1,.038-1.265.013-1.548.032-2.17.04h-2.29a5.572,5.572,0,0,1-1.017-.01c-.26-.134-.606.055-.8-.064a1.277,1.277,0,0,0-.364-.016,4.895,4.895,0,0,1-.766.059l-.382-.122a2.336,2.336,0,0,1-.864.1c-.193-.032-.616-.052-.845-.08s-.928.085-1.125.039a6.871,6.871,0,0,0-1.11.127c-.219.018-1.043-.129-1.452-.16l-.437.115-.311.081c-.609-.038-1.212-.089-1.34-.114s-.707-.057-1.019-.079a18.059,18.059,0,0,0-2.06.269l-.386-.23a1.072,1.072,0,0,0-.373,0c-.421.143-.9-.1-1.335.035a2.129,2.129,0,0,1-.59.05c-.365-.016-.721-.08-1.082-.082h-.314a7.339,7.339,0,0,1-.979.057c-.2-.01-.9-.016-1.069-.05a5.754,5.754,0,0,0-1.029.127c-.216.035-.79-.111-1-.075a12.842,12.842,0,0,1-1.518-.017h-.343c-.333,0-.667.044-1,.041l-.618,0c-.676-.034-1.769-.057-2.432-.052l-.556.066-.487.058c-.5-.044-1.371-.073-1.942-.065h-5.285c-.529,0-1.059-.006-1.586,0l-.328.006c-.359.033-.706.065-.77.07s-.557-.022-.957-.051-2.639.042-2.8.019-.605-.016-.77-.025-.98.064-1.4.071h-6.87c-.435,0-1.725.017-2.869.032s-4.51.118-4.944.183l-.129-.041-.328-.1a2.478,2.478,0,0,1-1-.005L161,3.507a5.741,5.741,0,0,1-1.033.011H159.4c-.629,0-1.361.016-1.629.042a7.943,7.943,0,0,1-1.5-.147l-.2.111-.293.161a2.865,2.865,0,0,0-1-.129c-.32.019-1.37.047-1.619.04s-1.232.059-1.687.031l-.415-.013-.437-.014c-.485.007-1.092.035-1.347.063s-1,.046-1.4.114l-.463-.063a10.951,10.951,0,0,0-1.309-.011h-.44a10.2,10.2,0,0,0-1.337.086h-.455a22.993,22.993,0,0,0-2.355-.057c-1.047.012-3.946.135-4.118.23l-.314-.135a6.9,6.9,0,0,0-.762.06l-.26.012a4.7,4.7,0,0,1-.982-.125,10.834,10.834,0,0,0-1.449.113c-.289,0-1.291,0-1.582,0s-1.328.029-1.662.058h-.3c-.284,0-.573-.057-.853-.051l-.546.011c-.6-.009-1.512-.012-2.033-.007s-2.07.1-2.392.072l-.292-.006-.424-.009a11.586,11.586,0,0,1-1.267,0c-.235-.023-1.034.116-1.349.131s-1.474,0-1.837,0-1.934,0-2.688.025-3.382.055-4.157.059-2.948.016-3.108.051a9.009,9.009,0,0,1-1.085-.065c-.209-.012-.976.11-1.344.12s-1.857,0-2.464,0-2.674,0-3.258.025-3.085.05-4.247.05H94.57c-1.211,0-2.465,0-2.785,0l-.238.086c-.226.081-.424-.179-.737-.016l-.063.032a5.012,5.012,0,0,0-.91.024c-.217.033-1.042-.089-1.535-.042h-.451l-3.435.006c-3.779,0-7.263-.033-7.745-.074l-.368.142-.057.022-.786-.048a8.862,8.862,0,0,0-1.177.021c-.1.032-.52-.041-.636-.022a8.527,8.527,0,0,1-.943.024l-.25-.012-1.2.03-.262,0a1.96,1.96,0,0,1-.628-.068,7.368,7.368,0,0,0-.85.043L69.28,4.5c-.115-.005-.264-.061-.325-.049l-.9.174c-1.047-.049-2.775-.088-3.841-.086h-3.39c-.624.007-1.379,0-1.678-.024a18.074,18.074,0,0,0-1.835.234L57,4.555a.988.988,0,0,0-.357-.015l-.441.109a15.394,15.394,0,0,0-1.818-.038l-.459.015c-.524.017-1.057,0-1.585,0H45.778c-.532,0-1.3-.017-1.7-.042s-1.545.108-1.689.086-1.043-.049-1.666-.062-2.43.1-2.649.094a9.719,9.719,0,0,1-1.064-.049,8.173,8.173,0,0,0-1.091.076c-.208.012-.893-.079-1.16-.051s-1.193.049-1.445.063-1.079-.078-1.267-.061-1.1.035-1.582.034-2.458-.02-3.308-.055l-.727.15-.131.027c-.208-.016-.727-.024-1.153-.019l-.271-.058-.446-.1a4.575,4.575,0,0,1-1.114.1l-.327.04-.352.044c-.455-.02-.985-.024-1.18-.01s-1.611-.119-2.819-.151l-1.007.206-.36.074c-.4-.034-.947-.062-1.213-.06s-1.181,0-1.441.013-.876-.044-.984-.028-.716.019-1.055.017-1.461-.011-1.74-.022-1.112.018-1.349-.01-.777.1-.846.077A1.253,1.253,0,0,0,8.167,4.9a5.433,5.433,0,0,1-.922.1H6.981C6.5,5,6.011,5,5.527,5H5.259a.929.929,0,0,0-.308-.135c-.049,0-.188.032-.2.073a5.707,5.707,0,0,1-1.16.013H2.843a2.948,2.948,0,0,1-.567-.024c.071-.009.212-.083.1-.138s-.176-.264-.126-.331.088-.271-.069-.271a1.573,1.573,0,0,0-.479.048.06.06,0,0,1-.034.109,1.651,1.651,0,0,1-.464-.089c-.142-.048-.834-.15-.97-.2s-.385-.279-.114-.3.58.267.761.324h.224a.46.46,0,0,0,.226-.081l.026-.019a.357.357,0,0,0-.217-.043c-.068.01-.289.008-.289-.034a.746.746,0,0,1,.494-.208A4.629,4.629,0,0,0,2.4,3.475c0-.056.1-.23.213-.169a1.39,1.39,0,0,0,.769.088l.063-.071c.083-.094.139-.073.316-.029l.124.031c.2,0,.719.008,1.162.01a7.48,7.48,0,0,0,1.409-.168c-.1-.016.235-.122.955-.2l.776.123a4.061,4.061,0,0,0,.463.053l.113.005c.193-.023.257-.087.142-.143s-.306-.216-.17-.232l.113.006c.133.007.3.066.374.053l.441-.091a3.274,3.274,0,0,0,.686.206c.106.006.54,0,.436-.045s0-.137.219-.208a6.278,6.278,0,0,1,1.175-.079c.149.007.759-.008.979,0s.878-.009,1.184.026a7.682,7.682,0,0,0,1.085-.194,1.837,1.837,0,0,1,.506.16.3.3,0,0,0,.2.007V2.594l.008-.254c.51.038,1.2.119,1.525.18l.412-.085.373-.077c.514-.024,1.107-.072,1.319-.108a6.469,6.469,0,0,1,.82.1l.031-.023.057-.042a4.066,4.066,0,0,1,.689.026h.244l.357,0c.377-.034.812-.073.967-.085s.837-.026,1.131-.04,1.325-.04,1.636-.02,1.321-.114,1.628-.126,1.193.052,1.335.013.706.039.845,0,.616.038.7.008a1.322,1.322,0,0,1,.5-.05,2.467,2.467,0,0,0,.679.079c.178-.021.871-.039,1.147-.029s1.107-.027,1.313-.019a9.758,9.758,0,0,0,1.013-.051c.152-.025.773-.057,1.059-.08a9.468,9.468,0,0,1,1.309.166c.181.024.4-.173.493-.191l.053.01.411.078c.419-.057.8-.112.844-.122l.029,0a3.659,3.659,0,0,0,.676.081l.224-.022a2.128,2.128,0,0,0,.566-.024,4.539,4.539,0,0,1,.925.034l.236.019.16.012c.187-.014.548-.033.8-.042a9.47,9.47,0,0,1,1.5.073l.392-.124c.223-.07.681.046.976-.068.027-.011.237.044.371.058l.585.058a11.546,11.546,0,0,0,1.443-.134c.146-.042.679.032.8-.016a2.289,2.289,0,0,1,.658.087c.077.011.428.021.69.043s1.243-.078,1.713-.1l.344.124.051.018a1.247,1.247,0,0,0,.48-.068,2.8,2.8,0,0,1,.636-.1c.2-.012,1.164.02,1.683.061l.414-.152c.105-.039.455.019.637-.011l.409-.066a8.78,8.78,0,0,0,.9.141c.145.007.682-.04.877-.012l.177.035c.228.045.335-.177.626-.032.027.014.326-.056.5-.057h.246c.267.026.561.057.656.069s.676-.019,1.027-.008,1.271-.136,1.366-.119.567.113.815.186l.244-.143.372-.217c.545.091,1.242.187,1.549.214a11.978,11.978,0,0,0,1.577-.118c.238-.038.892-.04,1.127-.064l.153.039.171.044a.945.945,0,0,0,.612,0L69.6,1.5l.027-.009a1.1,1.1,0,0,1,.379.037,2.049,2.049,0,0,0,.656.059,9.761,9.761,0,0,1,1.318-.015c.2.021.662.008.854.027s.621-.026.781-.022a6.7,6.7,0,0,0,.937-.068,14.11,14.11,0,0,1,1.473.111l.263-.135a1.107,1.107,0,0,1,.256,0l.537.03a8.481,8.481,0,0,0,1.569-.048c.274-.056,1.3.1,1.644.094l.279-.027.26-.025c.288,0,.759-.029,1.045-.055a7.424,7.424,0,0,1,1.143.132l.066-.011.774-.122c.9.017,1.812.03,2.037.027a8.335,8.335,0,0,1,1.415.116l.3-.192.135-.084a4.5,4.5,0,0,1,.875.161,4.122,4.122,0,0,0,.826-.09c.153-.014.639.084.787.092l.069-.022.366-.116a11.158,11.158,0,0,0,1.113.153,7.906,7.906,0,0,0,1.147-.089c.176-.034.782.036.875.025a3.759,3.759,0,0,0,.525-.114c.1-.039.493.023.588-.023l.3.052.327.057c.489-.034,1.144-.084,1.456-.111s1.137.047,1.276.034a8.386,8.386,0,0,1,.967.048l.241.008.087,0c.136-.057.272-.058.3,0a.607.607,0,0,0,.481.147c.192-.043.8-.164.957-.193s1.261-.033,1.454-.018.824-.1,1.067-.108,1.066.005,1.277.036,1.272-.012,1.819-.016l.339-.076.3-.068c.191.055.425.124.518.154a9.817,9.817,0,0,0,1.34-.074,17.07,17.07,0,0,1,1.9-.012,9.166,9.166,0,0,0,1.077.008c.246-.018,1.107-.044,1.362-.036a9.135,9.135,0,0,0,1.079-.09,2.644,2.644,0,0,1,.581.075l.034,0c.229-.029.451-.079.686-.086.206-.007.438.057.636.045l.3-.019c.339-.011.793-.036,1.011-.055s.722.077.769.036L118.938,1l.051-.021a6.576,6.576,0,0,1,.773.026c.333.026,1.817-.046,2.069-.022l.2.036.254.045a2.638,2.638,0,0,1,.808-.032l.17-.021.3-.037a2.834,2.834,0,0,1,.851-.092,6.786,6.786,0,0,0,1.033-.013c.215-.028.652-.021.832-.033a7.148,7.148,0,0,1,.835.041c.157.019.614-.021.676.008a2.215,2.215,0,0,0,.72.049c.271-.032,1.87-.016,2.421-.024s1.578-.125,1.789-.147l.274.026.527.051c.628-.006,1.335-.01,1.57-.009L135.329.8l.306-.048c.4,0,.894.01,1.094.03s.888-.021,1.059-.008l.16.013L138.1.8c.159.011.7,0,1.211-.024l.452-.029.385-.024c.429-.022.811-.04.848-.041s.3.024.535.041.99.035,1.186.059a3.446,3.446,0,0,0,.753.063,1.97,1.97,0,0,1,.548-.094c.142,0,.662-.1.959-.108s1.473-.015,1.939-.024,1.883.041,2.1.057.835-.088.977-.069.411.016.5.027.774-.037,1.334-.09l.519.022.38.016a4.283,4.283,0,0,1,1.108-.034l.277.008.281.008a2.891,2.891,0,0,1,.936.033A13.6,13.6,0,0,0,156.892.41l.394.107a.619.619,0,0,0,.224-.032l.069-.032a.79.79,0,0,1,.36-.119,7.169,7.169,0,0,1,.908.092c.2.023.968.011,1.166.032a6.553,6.553,0,0,0,.777-.021c.15-.008.829.026,1.107.045s1.255-.066,1.571-.041L163.593.4c.4-.126.534.09.781.055l.257-.037a4.812,4.812,0,0,1,.84-.165c.219-.017,1.032.021,1.245.037a10.293,10.293,0,0,0,1.169-.019,7.117,7.117,0,0,1,1.13.058A10.15,10.15,0,0,0,170.353.3l.409.061a1.634,1.634,0,0,0,.923-.1l.841-.053a11.616,11.616,0,0,0,2.644.017c.333-.031.637.169.968-.021a4.508,4.508,0,0,1,1-.02l.192.005a2.216,2.216,0,0,0,.545.041c.094-.015.345-.058.539-.106a7.042,7.042,0,0,1,.91.111c.183-.009.628-.087.716-.1a4.238,4.238,0,0,1,.686.124h.183a5.3,5.3,0,0,0,.555-.082l.318-.035c.333.045.684.09.78.1A2.066,2.066,0,0,0,183.02.2c.117-.026.533.036.638.026l.078-.02c.105-.027.2-.094.281-.091.226.008.447.067.661.062.277-.007.54-.07.818-.082l.247-.011a4.363,4.363,0,0,0,.871-.026l.215.065.141.042c.237.007.709.023,1.048.036s1.368-.074,1.591-.033,1.464-.018,2.253.048L192.6.1a2.774,2.774,0,0,1,.776,0l.359.065c.341-.04.786-.111.989-.158h.183a2.849,2.849,0,0,1,.543.092l.1.021a12.672,12.672,0,0,0,1.337.088c.64.021,2.256-.188,2.3-.18s.12.045.174.062A8.073,8.073,0,0,0,200.2.067c.292-.018,1.281-.051,1.548-.039s1.146.126,1.368.165.929-.058,1.1-.008A6.854,6.854,0,0,0,205.538,0l.4.136.174.059c.527-.055,1.356-.1,1.841-.11l.439.009L208.85.1A5.452,5.452,0,0,0,210.32.037l.422.127c.327.1.707-.183,1.146-.046a1.5,1.5,0,0,0,1-.024.4.4,0,0,1,.128,0l.3.046c.331.016.706.041.835.056s.72-.073,1-.1l.243,0,.5.009c.553,0,1.477-.014,2.054-.022l.528.007.33,0c.359.036.8.075.984.087a6.2,6.2,0,0,0,.773-.061A6.605,6.605,0,0,1,221.3.2l.02-.013.27-.174c.313.094,1.225.143,1.368.192" transform="translate(0 0)" fill="#ee8b3f"/>
    </g>
  </g>
</svg>
