<svg xmlns="http://www.w3.org/2000/svg" xmlns:xlink="http://www.w3.org/1999/xlink" width="65" height="65" viewBox="0 0 65 65">
  <defs>
    <clipPath id="clip-path">
      <rect id="Rectangle_160" data-name="Rectangle 160" width="43" height="43" transform="translate(0.216 -0.49)" fill="#fff"/>
    </clipPath>
  </defs>
  <g id="Group_269" data-name="Group 269" transform="translate(-605 -2940)">
    <circle id="Ellipse_59" data-name="Ellipse 59" cx="32.5" cy="32.5" r="32.5" transform="translate(605 2940)" fill="#ee8b3f"/>
    <g id="Group_102" data-name="Group 102" transform="translate(615.784 2951.49)">
      <g id="Group_101" data-name="Group 101" clip-path="url(#clip-path)">
        <path id="Path_65" data-name="Path 65" d="M21.4,42.8A21.4,21.4,0,1,1,42.8,21.4,21.426,21.426,0,0,1,21.4,42.8m0-41.377A19.975,19.975,0,1,0,41.377,21.4,20,20,0,0,0,21.4,1.427" fill="#fff"/>
        <path id="Path_66" data-name="Path 66" d="M148.934,193.08a2.436,2.436,0,0,1-2.26-1.53l-.782-1.955a2.379,2.379,0,0,1-.1-.312l-1.353-5.411a1.025,1.025,0,0,0-.076-.205l-.726-1.452a1,1,0,0,0-1.142-.526l-.691.172a2.445,2.445,0,0,1-2.11-.46l-2.258-1.806a2.423,2.423,0,0,1-.912-1.9v-.764a2.415,2.415,0,0,1,.453-1.412l2.733-3.826a2.436,2.436,0,0,1,1.979-1.019h1.493a2.425,2.425,0,0,1,1.252.347l2.588,1.552a.993.993,0,0,0,.714.124l1.548-.31a2.441,2.441,0,0,1,2.712,1.427l1.372,3.2a1,1,0,0,0,.406.464l1.406.844a2.432,2.432,0,0,1,.648,3.6l-1.248,1.561a1.011,1.011,0,0,0-.22.628v2.252a2.448,2.448,0,0,1-.713,1.72l-.773.773a1.014,1.014,0,0,0-.151.193l-1.7,2.841a2.433,2.433,0,0,1-1.315,1.055,2.351,2.351,0,0,1-.766.126m-6.187-12.849a2.415,2.415,0,0,1,2.165,1.346l.726,1.452a2.416,2.416,0,0,1,.184.5l1.353,5.411a.965.965,0,0,0,.041.127l.783,1.957a1,1,0,0,0,1.8.143l1.7-2.84a2.453,2.453,0,0,1,.365-.467l.774-.775a1.011,1.011,0,0,0,.295-.711V184.12a2.439,2.439,0,0,1,.533-1.519l1.249-1.561a1,1,0,0,0-.267-1.49l-1.4-.843a2.415,2.415,0,0,1-.984-1.126l-1.372-3.2a1.011,1.011,0,0,0-1.121-.59l-1.548.31a2.42,2.42,0,0,1-1.729-.3l-2.589-1.553a1,1,0,0,0-.517-.143H141.69a1.008,1.008,0,0,0-.818.421l-2.733,3.826a1,1,0,0,0-.188.584v.764a1,1,0,0,0,.377.785l2.257,1.8a1.009,1.009,0,0,0,.873.191l.69-.172a2.41,2.41,0,0,1,.6-.076" transform="translate(-125.109 -156.407)" fill="#fff"/>
        <path id="Path_67" data-name="Path 67" d="M360.543,332.823a.712.712,0,0,1-.5-.209l-1.427-1.427a.714.714,0,0,1-.195-.644l.714-3.567a.72.72,0,0,1,.195-.365l2.14-2.14a.713.713,0,0,1,1.2.365l.713,3.567a.716.716,0,0,1-.087.507l-2.14,3.567a.713.713,0,0,1-.524.341.861.861,0,0,1-.087.005m-.653-2.375.511.512,1.528-2.547-.4-1.99-1.045,1.045Z" transform="translate(-328.44 -297.153)" fill="#fff"/>
        <path id="Path_68" data-name="Path 68" d="M181.087,20.105a2.5,2.5,0,0,1-2.408-1.894,7.6,7.6,0,0,0-.622-1.7.967.967,0,0,0-.768-.514,1.1,1.1,0,0,0-.956.4c-1.436,1.736-2.835,2.538-4.162,2.388a3.387,3.387,0,0,1-2.421-1.774c-3.306-6.613-9.212-6.041-9.271-6.03a.709.709,0,0,1-.079,0,3.573,3.573,0,0,0-1.307.283,3.675,3.675,0,0,1-4.335-1.176,3.5,3.5,0,0,1,.015-4.332l.083-.108a2.967,2.967,0,0,1,2.1-1.121A7.017,7.017,0,0,0,162.9.687a.71.71,0,0,1,.662-.375A21.332,21.332,0,0,1,183.77,19.006a.712.712,0,0,1-.572.788c-.577.112-1.178.21-1.786.29a2.616,2.616,0,0,1-.325.021m-3.908-5.536a2.549,2.549,0,0,1,.255.013,2.372,2.372,0,0,1,1.883,1.263,8.99,8.99,0,0,1,.746,2.016,1.062,1.062,0,0,0,1.161.808c.349-.046.7-.1,1.036-.156A19.9,19.9,0,0,0,163.93,1.762a8.443,8.443,0,0,1-6.858,4.193,1.537,1.537,0,0,0-1.091.576l-.071.091a2.083,2.083,0,0,0-.017,2.606,2.235,2.235,0,0,0,2.67.717,5.012,5.012,0,0,1,1.8-.385,9.953,9.953,0,0,1,3.926.575,11.908,11.908,0,0,1,6.735,6.24,1.956,1.956,0,0,0,1.315,1c.805.1,1.8-.564,2.892-1.881a2.525,2.525,0,0,1,1.945-.921" transform="translate(-141.139 -0.286)" fill="#fff"/>
        <path id="Path_69" data-name="Path 69" d="M3.772,106.761H2.034a.713.713,0,0,1-.709-.786,21.3,21.3,0,0,1,4.458-11,.712.712,0,0,1,.879-.2l2.678,1.339a3.939,3.939,0,0,1,2.116,2.866l.055.326A3.908,3.908,0,0,1,9.4,103.467l-1.4.7a2.514,2.514,0,0,0-.962.849,3.918,3.918,0,0,1-3.267,1.747m-.932-1.427h.932a2.494,2.494,0,0,0,2.08-1.113,3.931,3.931,0,0,1,1.511-1.334l1.4-.7a2.486,2.486,0,0,0,1.348-2.646l-.055-.326h0A2.507,2.507,0,0,0,8.7,97.393l-2.15-1.075a19.878,19.878,0,0,0-3.713,9.016" transform="translate(-1.211 -86.786)" fill="#fff"/>
        <path id="Path_70" data-name="Path 70" d="M9.71,279.622a.713.713,0,0,1-.438-.15,21.465,21.465,0,0,1-8.2-14.946.714.714,0,0,1,.429-.721l.747-.32a3.935,3.935,0,0,1,4.353.839l1.322,1.322a2.521,2.521,0,0,0,1.291.691,3.964,3.964,0,0,1,3.178,3.877v.2a5.4,5.4,0,0,1-.911,3.008,4.02,4.02,0,0,0-.647,1.776l-.421,3.791a.71.71,0,0,1-.708.634M2.55,264.911a20.038,20.038,0,0,0,6.6,12.6l.275-2.476a5.454,5.454,0,0,1,.877-2.41,3.98,3.98,0,0,0,.671-2.216v-.2a2.534,2.534,0,0,0-2.032-2.478,3.934,3.934,0,0,1-2.02-1.082L5.6,265.333a2.518,2.518,0,0,0-2.782-.537Z" transform="translate(-0.983 -241.162)" fill="#fff"/>
      </g>
    </g>
  </g>
</svg>
